<svg xmlns="http://www.w3.org/2000/svg" width="1280" height="550" fill="none" viewBox="0 0 1280 550">
  <g clip-path="url(#a)">
    <path fill="url(#b)" fill-rule="evenodd" d="M1280 0H0v550h136.767l411.609-202.736c.425-.209.965-.081 1.208.286.242.365.095.832-.329 1.042l-61.513 30.297h70.049l32.034-31.466c.324-.316.883-.347 1.25-.069a.724.724 0 0 1 .301.573h47.668c0-.422.397-.764.885-.764.489 0 .885.342.885.764v52.71l101.413.771-53.773-52.977c-.322-.318-.285-.8.083-1.078.367-.279.926-.246 1.248.071l12.662 12.475h54.787L734.2 348.592c-.425-.208-.574-.676-.332-1.042.241-.367.781-.495 1.206-.286l412.986 202.728c.01.003.02.005.02.008H1280V0Zm-135.5 550L795.921 378.889h-74.197L895.405 550H1144.5Zm-251.449 0L770.606 429.367H640.814V550h252.237Zm-254.007 0v-61.478H448.536L385.947 550h253.097Zm-255.159 0c0-.179.073-.359.219-.506l152.352-149.649-90.572-.34L140.338 550h243.547ZM508.76 429.367h130.284v-69.47h-59.562l-70.722 69.47Z" clip-rule="evenodd"/>
    <path fill="url(#c)" fill-rule="evenodd" d="M1206.53 0H73.472v550h63.295l411.61-202.736c.424-.209.964-.081 1.207.286.242.365.096.832-.329 1.042l-61.513 30.297h70.049l32.034-31.466c.324-.316.884-.347 1.25-.069a.724.724 0 0 1 .301.573h47.668c0-.422.397-.764.885-.764.489 0 .885.342.885.764v52.71l101.413.771-53.773-52.977c-.322-.318-.285-.8.083-1.078.367-.279.926-.246 1.249.071l12.661 12.475h54.787L734.2 348.592c-.425-.208-.574-.676-.331-1.042.24-.367.78-.495 1.205-.286l412.986 202.728c.01.003.02.005.02.008h58.45V0Zm-62.03 550L795.921 378.889h-74.197L895.405 550H1144.5Zm-251.449 0L770.606 429.367H640.814V550h252.237Zm-254.007 0v-61.478H448.536L385.947 550h253.097Zm-255.159 0c0-.179.073-.359.22-.506l152.351-149.649-90.572-.34L140.338 550h243.547ZM508.76 429.367h130.284v-69.47h-59.562l-70.722 69.47Z" clip-rule="evenodd"/>
    <path stroke="url(#d)" stroke-miterlimit="10" stroke-width=".5" d="M478.876 347.926h322.39" opacity=".02"/>
    <path stroke="url(#e)" stroke-miterlimit="10" d="M0 488.906h1280" opacity=".25"/>
    <path stroke="url(#f)" stroke-miterlimit="10" d="m299.269 398.414 701.311 5.347" opacity=".15"/>
    <path stroke="url(#g)" stroke-miterlimit="10" d="M370.297 379.27h539.406" opacity=".1"/>
    <path stroke="url(#h)" stroke-miterlimit="10" d="M186.024 429.746h911.026" opacity=".2"/>
    <path stroke="url(#i)" stroke-miterlimit="10" d="M440.786 360.281h398.428" opacity=".05"/>
    <path fill="url(#j)" d="M808.409 351.596 1280 473.994V0h-73.47L804.24 217.909c-5.24 2.834-8.427 7.791-8.427 13.123v105.791c0 6.776 5.099 12.765 12.596 14.782v-.008Z" opacity=".5"/>
    <path fill="url(#k)" d="M471.591 351.595 0 481.25V0h73.472L475.76 217.907c5.24 2.834 8.427 7.792 8.427 13.124v105.791c0 6.775-5.099 12.764-12.596 14.781v-.008Z" opacity=".5"/>
    <path stroke="url(#l)" stroke-linecap="round" stroke-linejoin="round" stroke-opacity=".4" d="m792.697 347.186 158.894 42.396-1.3-188.742c-.017-2.499 1.733-4.757 4.417-5.698l73.032-25.594c4.65-1.628 9.73 1.314 9.75 5.644l.85 235.779 58.87 15.903V150.387c0-2.482 1.73-4.717 4.4-5.657l104.92-37.023v346.806l73.03 18.715" opacity=".3"/>
    <path stroke="url(#m)" stroke-linecap="round" stroke-linejoin="round" stroke-opacity=".4" d="m487.745 346.424-159.778 43.16L329.7 200.47c.021-2.506-1.728-4.768-4.417-5.711l-73.058-25.601c-4.638-1.626-9.714 1.303-9.745 5.624l-1.706 237.719-57.538 15.902V149.631c0-2.485-1.743-4.722-4.41-5.659L71.701 106.945v352.917L.442 479.341" opacity=".3"/>
    <path fill="url(#n)" fill-opacity=".4" fill-rule="evenodd" d="M1279.28 82.237c.23-.079.34-.301.25-.497-.09-.196-.35-.29-.58-.213L795.648 250.088c-.226.078-.338.299-.246.496.09.196.349.29.575.213l483.303-168.56Zm-.07 104.785c.24-.044.39-.245.34-.452-.05-.206-.29-.337-.53-.293l-240.77 44.116-1.33.246c-.24.044-.39.248-.34.454.05.206.29.337.52.293l1.33-.246 240.78-44.118Zm-328.855 60.421c.239-.044.391-.247.34-.454-.052-.206-.287-.337-.526-.293l-154.45 28.589c-.239.043-.391.246-.34.452.051.207.287.338.526.294l154.45-28.588Zm329.205 38.06c0 .211-.19.387-.43.391l-239.89 3.525c-.25.006-.45-.161-.46-.371 0-.211.19-.387.43-.392l239.89-3.526c.25-.004.45.162.46.373Zm-329.297 5.41c.005.211-.188.385-.432.391l-154.008 3.245c-.244.005-.447-.162-.453-.373-.005-.211.188-.386.432-.391l154.007-3.245c.245-.006.447.162.454.373Zm-154.392 30.299c-.242-.028-.465.119-.497.328-.032.21.138.402.38.43l153.565 17.807c.241.029.464-.117.497-.327.032-.209-.138-.401-.38-.429l-153.565-17.809Zm243.409 28.227c-.24-.027-.46.119-.49.329-.04.209.13.401.38.429l239.89 30.859c.24.028.46-.119.49-.328.04-.208-.13-.4-.38-.429l-239.89-30.86Z" clip-rule="evenodd" opacity=".3"/>
    <path stroke="url(#o)" stroke-linecap="round" stroke-linejoin="round" d="M73.472.656 480.61 221.757" opacity=".3"/>
    <path fill="url(#p)" fill-opacity=".4" fill-rule="evenodd" d="M1.05 80c-.227-.078-.485.017-.576.213-.09.196.02.418.247.496l483.301 170.088c.227.078.485-.017.576-.212.09-.197-.02-.419-.247-.497L1.05 80ZM.978 192.387c-.24-.044-.474.087-.526.293-.05.207.101.41.34.454l483.303 82.897c.239.045.474-.087.526-.293.049-.206-.103-.41-.342-.454L.978 192.387Zm-.535 88.532c.006-.211.209-.378.453-.372l483.301 13.239c.245.004.438.18.432.391-.005.21-.209.377-.453.371L.874 281.31c-.244-.005-.437-.181-.431-.391Zm483.802 41.051c.243-.028.413-.22.381-.429-.034-.208-.255-.355-.498-.327L.826 377.245c-.242.028-.412.22-.38.429.033.21.256.356.498.327l483.301-56.031Z" clip-rule="evenodd" opacity=".3"/>
    <path stroke="url(#q)" stroke-linecap="round" stroke-linejoin="round" d="M1204.76.383 798.814 220.979" opacity=".3"/>
    <path stroke="url(#r)" stroke-miterlimit="10" stroke-width=".5" d="M478.876 347.926h322.39" opacity=".02"/>
    <path fill="url(#s)" d="m1206.27 120.188-87.82 30.081v279.859l88.49 22.726-.67-332.666Z"/>
    <g filter="url(#t)" opacity=".5">
      <path fill="url(#u)" fill-opacity=".5" d="m1107.26 427.24 22.49 6.121 30.21 8.903 28.93 8.345 12.58 3.337 24.53 6.677V97.447c0-6.832-7.72-14.567-14.61-15.713l-115.06 40.962c-8.52-1.413-19.93 15.389-19.93 23.924v271.719l16.72 4.45 14.14 4.451Z"/>
    </g>
    <path fill="url(#v)" d="m1206.53 120.953-83.55 27.809c-2.73.91-4.53 3.176-4.53 5.702V430.13l88.49 22.725-.41-331.902Z"/>
    <path fill="url(#w)" fill-opacity=".6" d="m1206.53 120.953-83.55 27.809c-2.73.91-4.53 3.176-4.53 5.702V430.13l88.49 22.725-.41-331.902Z"/>
    <path fill="#741A60" d="M1118.45 154.464c0-2.526 1.8-4.792 4.53-5.702l83.55-27.809v-12.199l-103.9 36.438c-2.68.937-4.42 3.179-4.42 5.668l.38 279.064 19.86.206V154.464Z"/>
    <mask id="x" width="109" height="323" x="1098" y="108" maskUnits="userSpaceOnUse" style="mask-type:alpha">
      <path fill="#9E3A6E" d="M1118.45 154.464c0-2.526 1.8-4.792 4.53-5.702l83.55-27.809v-12.199l-103.9 36.438c-2.67.937-4.42 3.179-4.42 5.668l.39 279.064 19.85.206V154.464Z"/>
    </mask>
    <g mask="url(#x)">
      <path fill="url(#y)" fill-opacity=".4" d="m1207.41 120.954-86.3 32.968-23.79-7.179 110.09-39.516v13.727Z"/>
      <path fill="url(#z)" fill-opacity=".4" d="M1121.44 430.052V152.775l-24.67-6.111.38 283.181 24.29.207Z"/>
    </g>
    <g filter="url(#A)">
      <path fill="url(#B)" d="M1118.45 430.129H875.437c-13.977 0-19.952 15.331-8.807 22.619l85.404 94.578 95.156-37.812 159.76-56.659-88.49-22.718-.01-.008Z"/>
    </g>
    <path fill="url(#C)" d="m73.728 119.426 87.821 30.082v279.858l-88.494 22.726.673-332.666Z"/>
    <g filter="url(#D)" opacity=".5">
      <path fill="url(#E)" fill-opacity=".5" d="m171.83 427.419-23.162 5.947-31.104 8.652-29.78 8.109-12.959 3.244-25.254 6.488V102.351c-1.77-12.596 7.955-19.503 15.05-20.617l118.46 42.356c13.434 3.478 20.515 17.247 20.515 25.541v269.137l-17.206 4.325-14.56 4.326Z"/>
    </g>
    <path fill="#3D4D8E" d="M161.548 153.703c0-2.527-1.801-4.793-4.533-5.702l-83.544-27.81v-12.199l103.901 36.438c2.672.937 4.418 3.179 4.415 5.669l-.384 279.063-19.855.207V153.703Z"/>
    <mask id="F" width="109" height="323" x="73" y="107" maskUnits="userSpaceOnUse" style="mask-type:alpha">
      <path fill="#3D4D8E" d="M161.548 153.703c0-2.527-1.801-4.793-4.533-5.702l-83.544-27.81v-12.199l103.901 36.438c2.672.937 4.418 3.179 4.415 5.669l-.384 279.063-19.855.207V153.703Z"/>
    </mask>
    <g mask="url(#F)">
      <path fill="url(#G)" fill-opacity=".4" d="m73.47 120.191 81.439 31.823 26.884-6.033-108.322-37.989v12.199Z"/>
      <path fill="url(#H)" fill-opacity=".4" d="m153.253 429.29 1.213-277.277 27.884-6.111-.39 283.182-28.707.206Z"/>
    </g>
    <path fill="url(#I)" d="m73.471 120.191 83.545 27.81c2.731.909 4.533 3.175 4.533 5.701v275.666l-88.494 22.726.416-331.903Z"/>
    <path fill="url(#J)" d="m73.471 120.191 83.545 27.81c2.731.909 4.533 3.175 4.533 5.701v275.666l-88.494 22.726.416-331.903Z"/>
    <g filter="url(#K)">
      <path fill="url(#L)" d="M161.548 429.367h243.013c13.978 0 19.953 15.331 8.808 22.619l-149.811 98.015-70.584-33.992-120.388-60.347 88.953-26.287.009-.008Z"/>
    </g>
    <path fill="url(#M)" d="m243.075 175.641 65.755 22.456c2.716.926 4.492 3.197 4.476 5.716l-1.178 186.61-70.071 17.539 1.018-232.321Z"/>
    <path fill="url(#N)" fill-opacity=".7" d="m243.075 175.641 65.755 22.456c2.716.926 4.492 3.197 4.476 5.716l-1.178 186.61-70.071 17.539 1.018-232.321Z"/>
    <g filter="url(#O)" opacity=".5">
      <path fill="url(#P)" fill-opacity=".6" d="m327.324 396.492-16.107 4.195-21.631 6.102-20.708 5.721-9.011 2.287-17.562 4.578V170.423c0-4.684 5.531-9.985 10.466-10.771l82.377 21.796c6.102-.969 14.265 10.549 14.265 16.399V390.39l-11.964 3.051-10.125 3.051Z"/>
    </g>
    <path fill="#507293" d="M313.306 203.814c.016-2.519-1.761-4.788-4.475-5.715l-65.757-22.457c.013-4.168 4.899-7.008 9.38-5.453l71.949 24.976c2.698.937 4.46 3.204 4.439 5.714l-1.62 189.547h-15.093l1.177-186.612Z"/>
    <mask id="Q" width="87" height="222" x="243" y="169" maskUnits="userSpaceOnUse" style="mask-type:alpha">
      <path fill="#507293" d="M313.662 203.639c.016-2.519-1.762-4.788-4.476-5.715l-65.756-22.457c.013-4.168 4.899-7.01 9.382-5.453l71.947 24.976c2.7.937 4.46 3.204 4.438 5.714l-1.62 189.545h-15.092l1.177-186.61Z"/>
    </mask>
    <g mask="url(#Q)">
      <path fill="url(#R)" fill-opacity=".4" d="m245.2 176.032 67.275 24.487 19.475-4.201-77.28-25.867c-4.551-1.523-9.457 1.367-9.47 5.581Z"/>
      <path fill="url(#S)" fill-opacity=".4" d="m312.476 391.11-2.213-190.972 19.032-3.056-1.663 194.028h-15.156Z"/>
    </g>
    <g filter="url(#T)">
      <path fill="url(#U)" d="M242.057 407.965v5.026l206.012.443c7.268.015 14.349-2.017 20.165-5.783l6.692-4.338c6.373-4.133 2.983-12.887-4.984-12.887H312.146l-70.072 17.539h-.017Z"/>
    </g>
    <g opacity=".6">
      <path fill="url(#V)" d="m1036.69 175.641-65.761 22.456c-2.714.926-4.492 3.197-4.476 5.716l1.178 186.61 70.069 17.539-1.01-232.321Z"/>
      <path fill="url(#W)" fill-opacity=".6" d="m1036.69 175.641-65.761 22.456c-2.714.926-4.492 3.197-4.476 5.716l1.178 186.61 70.069 17.539-1.01-232.321Z"/>
      <g filter="url(#X)" opacity=".5">
        <path fill="url(#Y)" fill-opacity=".6" d="m952.435 396.492 16.109 4.195 21.629 6.102 20.707 5.721 9.01 2.287 17.56 4.578V170.423c0-4.684-5.53-9.985-10.46-10.771l-82.378 21.796c-6.103-.969-14.266 10.549-14.266 16.399V390.39l11.966 3.051 10.123 3.051Z"/>
      </g>
      <path fill="#FF612F" d="M966.453 203.814c-.016-2.519 1.762-4.788 4.476-5.715l65.751-22.457c-.01-4.168-4.89-7.008-9.37-5.453l-71.952 24.976c-2.7.937-4.461 3.204-4.438 5.714l1.618 189.547h15.092l-1.177-186.612Z"/>
      <mask id="Z" width="87" height="222" x="950" y="170" maskUnits="userSpaceOnUse" style="mask-type:alpha">
        <path fill="#507293" d="M966.099 204.405c-.016-2.52 1.761-4.788 4.475-5.716l65.756-22.457c-.01-4.167-4.9-7.009-9.38-5.452l-71.948 24.976c-2.698.936-4.46 3.204-4.438 5.714l1.62 189.545h15.092l-1.177-186.61Z" opacity=".6"/>
      </mask>
      <g mask="url(#Z)">
        <path fill="url(#aa)" fill-opacity=".4" d="m1036.83 175.652-70.632 25.251-16.819-3.055 78.051-27.621c4.48-1.584 9.39 1.25 9.4 5.425Z"/>
        <path fill="url(#ab)" fill-opacity=".4" d="m969.737 391.112-2.452-190.591-16.819-2.673 1.663 194.027 17.608-.763Z"/>
      </g>
      <g filter="url(#ac)">
        <path fill="url(#ad)" d="M1037.7 407.965v5.026l-206.01.443c-7.267.015-14.349-2.017-20.165-5.783l-6.692-4.338c-6.373-4.133-2.983-12.887 4.984-12.887h157.796l70.077 17.539h.01Z"/>
      </g>
    </g>
    <g opacity=".6">
      <path stroke="url(#ae)" stroke-linecap="round" stroke-linejoin="round" d="m138.977 549.616 409.839-201.69" opacity=".8"/>
      <path stroke="url(#af)" stroke-linecap="round" stroke-linejoin="round" d="m384.77 549.997 205.721-202.071" opacity=".8"/>
      <path stroke="url(#ag)" stroke-linecap="round" stroke-linejoin="round" d="m640.001 549.616-.072-201.69" opacity=".8"/>
      <path stroke="url(#ah)" stroke-linecap="round" stroke-linejoin="round" d="m893.61 549.616-204.49-201.69" opacity=".8"/>
      <path stroke="url(#ai)" stroke-linecap="round" stroke-linejoin="round" d="m1145.89 549.616-411.253-201.69" opacity=".8"/>
    </g>
    <g opacity=".6">
      <path fill="#8D199C" d="m448.496 488.523 60.22-59.156h130.576l.071 59.156H448.496Z"/>
      <path fill="#960FA4" d="M640.708 429.366h129.913l-28.38-27.95-101.462-.787-.071 28.737Z"/>
      <path fill="#9B14A9" d="m536.467 399.848 21.371-20.961h-70.216l-41.835 20.625 90.68.336Z"/>
      <path fill="#A220B0" d="M721.676 378.889h74.234l-38.685-18.991h-54.82l19.271 18.991Z"/>
      <path fill="#AF1FBD" d="M579.432 359.896h59.611v-11.97h-47.422l-12.189 11.97Z"/>
    </g>
  </g>
  <defs>
    <linearGradient id="d" x1="nan" x2="nan" y1="nan" y2="nan" gradientUnits="userSpaceOnUse">
      <stop stop-color="#fff" stop-opacity=".2"/>
      <stop offset=".49" stop-color="#fff"/>
      <stop offset="1" stop-color="#fff" stop-opacity=".2"/>
    </linearGradient>
    <linearGradient id="e" x1="73.472" x2="1206.53" y1="489.406" y2="489.406" gradientUnits="userSpaceOnUse">
      <stop stop-color="#fff" stop-opacity=".2"/>
      <stop offset=".49" stop-color="#fff" stop-opacity=".6"/>
      <stop offset="1" stop-color="#fff" stop-opacity=".2"/>
    </linearGradient>
    <linearGradient id="f" x1="299.269" x2="1000.58" y1="401.088" y2="401.088" gradientUnits="userSpaceOnUse">
      <stop stop-color="#fff" stop-opacity=".2"/>
      <stop offset=".49" stop-color="#fff" stop-opacity=".5"/>
      <stop offset="1" stop-color="#fff" stop-opacity=".2"/>
    </linearGradient>
    <linearGradient id="g" x1="nan" x2="nan" y1="nan" y2="nan" gradientUnits="userSpaceOnUse">
      <stop stop-color="#fff" stop-opacity=".2"/>
      <stop offset=".49" stop-color="#fff" stop-opacity=".5"/>
      <stop offset="1" stop-color="#fff" stop-opacity=".2"/>
    </linearGradient>
    <linearGradient id="h" x1="nan" x2="nan" y1="nan" y2="nan" gradientUnits="userSpaceOnUse">
      <stop stop-color="#fff" stop-opacity=".2"/>
      <stop offset=".49" stop-color="#fff" stop-opacity=".6"/>
      <stop offset="1" stop-color="#fff" stop-opacity=".2"/>
    </linearGradient>
    <linearGradient id="i" x1="nan" x2="nan" y1="nan" y2="nan" gradientUnits="userSpaceOnUse">
      <stop stop-color="#fff" stop-opacity=".2"/>
      <stop offset=".49" stop-color="#fff" stop-opacity=".5"/>
      <stop offset="1" stop-color="#fff" stop-opacity=".2"/>
    </linearGradient>
    <linearGradient id="j" x1="795.813" x2="1206.53" y1="229.762" y2="229.762" gradientUnits="userSpaceOnUse">
      <stop stop-color="#6D1B98" stop-opacity="0"/>
      <stop offset=".24" stop-color="#5B157C" stop-opacity=".62"/>
      <stop offset="1" stop-color="#562399"/>
    </linearGradient>
    <linearGradient id="k" x1="484.187" x2="73.472" y1="0" y2="0" gradientUnits="userSpaceOnUse">
      <stop stop-color="#6D1B98" stop-opacity="0"/>
      <stop offset=".24" stop-color="#5B157C" stop-opacity=".62"/>
      <stop offset="1" stop-color="#562399"/>
    </linearGradient>
    <linearGradient id="l" x1="1205.64" x2="812.933" y1="238.939" y2="174.273" gradientUnits="userSpaceOnUse">
      <stop stop-color="#fff"/>
      <stop offset="1" stop-color="#fff" stop-opacity="0"/>
    </linearGradient>
    <linearGradient id="m" x1="74.799" x2="487.745" y1="267.646" y2="266.696" gradientUnits="userSpaceOnUse">
      <stop stop-color="#fff"/>
      <stop offset="1" stop-color="#fff" stop-opacity="0"/>
    </linearGradient>
    <linearGradient id="n" x1="1206.97" x2="780.69" y1="116.396" y2="145.355" gradientUnits="userSpaceOnUse">
      <stop stop-color="#fff"/>
      <stop offset="1" stop-color="#fff" stop-opacity=".2"/>
    </linearGradient>
    <linearGradient id="o" x1="480.611" x2="99.363" y1="213.462" y2="-31.368" gradientUnits="userSpaceOnUse">
      <stop stop-color="#fff" stop-opacity="0"/>
      <stop offset="1" stop-color="#fff"/>
    </linearGradient>
    <linearGradient id="p" x1="484.629" x2="58.349" y1="116.397" y2="145.356" gradientUnits="userSpaceOnUse">
      <stop stop-color="#fff" stop-opacity=".2"/>
      <stop offset="1" stop-color="#fff"/>
    </linearGradient>
    <linearGradient id="q" x1="1205.95" x2="841.404" y1="1.523" y2="275.917" gradientUnits="userSpaceOnUse">
      <stop stop-color="#fff"/>
      <stop offset="1" stop-color="#fff" stop-opacity="0"/>
    </linearGradient>
    <linearGradient id="r" x1="nan" x2="nan" y1="nan" y2="nan" gradientUnits="userSpaceOnUse">
      <stop stop-color="#fff" stop-opacity=".2"/>
      <stop offset=".49" stop-color="#fff"/>
      <stop offset="1" stop-color="#fff" stop-opacity=".2"/>
    </linearGradient>
    <linearGradient id="s" x1="1118.45" x2="1206.94" y1="286.517" y2="286.517" gradientUnits="userSpaceOnUse">
      <stop stop-color="#3F0856"/>
      <stop offset="1" stop-color="#120116"/>
    </linearGradient>
    <linearGradient id="u" x1="1067.53" x2="1275.71" y1="250.286" y2="251.969" gradientUnits="userSpaceOnUse">
      <stop stop-color="#fff"/>
      <stop offset=".52" stop-color="#fff" stop-opacity=".24"/>
      <stop offset="1" stop-color="#fff" stop-opacity="0"/>
    </linearGradient>
    <linearGradient id="v" x1="1235.3" x2="1118.45" y1="287.221" y2="285.951" gradientUnits="userSpaceOnUse">
      <stop stop-color="#3B1455"/>
      <stop offset="1" stop-color="#EB396F"/>
    </linearGradient>
    <linearGradient id="w" x1="1240.61" x2="1087.92" y1="280.346" y2="282.911" gradientUnits="userSpaceOnUse">
      <stop stop-color="#3B1455"/>
      <stop offset="1" stop-color="#EB396F" stop-opacity="0"/>
    </linearGradient>
    <linearGradient id="y" x1="1156.51" x2="1149.63" y1="140.936" y2="122.993" gradientUnits="userSpaceOnUse">
      <stop stop-color="#490C3A"/>
      <stop offset="1" stop-color="#E3386E"/>
    </linearGradient>
    <linearGradient id="z" x1="1103.42" x2="1115.41" y1="255.639" y2="255.719" gradientUnits="userSpaceOnUse">
      <stop stop-color="#490C3A"/>
      <stop offset="1" stop-color="#E3386E"/>
    </linearGradient>
    <linearGradient id="B" x1="1156.31" x2="981.673" y1="359.184" y2="571.951" gradientUnits="userSpaceOnUse">
      <stop stop-color="#D5546D"/>
      <stop offset=".97" stop-color="#3E105B" stop-opacity="0"/>
    </linearGradient>
    <linearGradient id="C" x1="161.549" x2="73.055" y1="285.755" y2="285.755" gradientUnits="userSpaceOnUse">
      <stop stop-color="#3F0856"/>
      <stop offset="1" stop-color="#120116"/>
    </linearGradient>
    <linearGradient id="E" x1="212.733" x2="-1.601" y1="255.46" y2="257.295" gradientUnits="userSpaceOnUse">
      <stop stop-color="#fff"/>
      <stop offset=".52" stop-color="#fff" stop-opacity=".24"/>
      <stop offset="1" stop-color="#fff" stop-opacity="0"/>
    </linearGradient>
    <linearGradient id="G" x1="123.484" x2="136.242" y1="143.23" y2="110.574" gradientUnits="userSpaceOnUse">
      <stop stop-color="#2A3684"/>
      <stop offset="1" stop-color="#4F0B65"/>
    </linearGradient>
    <linearGradient id="H" x1="162.159" x2="179.615" y1="287.596" y2="287.596" gradientUnits="userSpaceOnUse">
      <stop stop-color="#175BB7"/>
      <stop offset="1" stop-color="#4F0B65"/>
    </linearGradient>
    <linearGradient id="I" x1="44.702" x2="161.545" y1="286.46" y2="285.19" gradientUnits="userSpaceOnUse">
      <stop stop-color="#3B1455"/>
      <stop offset="1" stop-color="#0778E0"/>
    </linearGradient>
    <linearGradient id="J" x1="57.98" x2="161.545" y1="286.46" y2="285.19" gradientUnits="userSpaceOnUse">
      <stop stop-color="#3B1455"/>
      <stop offset="1" stop-color="#0778E0" stop-opacity="0"/>
    </linearGradient>
    <linearGradient id="L" x1="123.691" x2="298.326" y1="358.422" y2="571.189" gradientUnits="userSpaceOnUse">
      <stop stop-color="#1F79CC"/>
      <stop offset=".97" stop-color="#3E105B" stop-opacity="0"/>
    </linearGradient>
    <linearGradient id="M" x1="313.332" x2="242.07" y1="292.528" y2="290.575" gradientUnits="userSpaceOnUse">
      <stop stop-color="#01A4B0"/>
      <stop offset="1" stop-color="#015A5A"/>
    </linearGradient>
    <linearGradient id="N" x1="414.273" x2="241.658" y1="291.805" y2="291.805" gradientUnits="userSpaceOnUse">
      <stop stop-color="#01A4B0" stop-opacity="0"/>
      <stop offset="1" stop-color="#3B0642"/>
    </linearGradient>
    <linearGradient id="P" x1="355.767" x2="206.719" y1="275.192" y2="276.45" gradientUnits="userSpaceOnUse">
      <stop stop-color="#fff"/>
      <stop offset=".52" stop-color="#fff" stop-opacity=".24"/>
      <stop offset="1" stop-color="#fff" stop-opacity="0"/>
    </linearGradient>
    <linearGradient id="R" x1="284.027" x2="294.261" y1="195.169" y2="169.464" gradientUnits="userSpaceOnUse">
      <stop stop-color="#22AEB7"/>
      <stop offset="1" stop-color="#4F0B65"/>
    </linearGradient>
    <linearGradient id="S" x1="312.52" x2="327.021" y1="294.096" y2="294.096" gradientUnits="userSpaceOnUse">
      <stop stop-color="#1FA6AE"/>
      <stop offset="1" stop-color="#4F0B65"/>
    </linearGradient>
    <linearGradient id="U" x1="291.438" x2="397.683" y1="330.496" y2="467.375" gradientUnits="userSpaceOnUse">
      <stop stop-color="#01ABB9"/>
      <stop offset=".97" stop-color="#3E105B" stop-opacity="0"/>
    </linearGradient>
    <linearGradient id="V" x1="966.427" x2="1037.69" y1="292.528" y2="290.575" gradientUnits="userSpaceOnUse">
      <stop stop-color="#E67814"/>
      <stop offset="1" stop-color="#BD4D0E"/>
    </linearGradient>
    <linearGradient id="W" x1="966.427" x2="1037.69" y1="292.528" y2="290.575" gradientUnits="userSpaceOnUse">
      <stop stop-color="#E67814" stop-opacity="0"/>
      <stop offset="1" stop-color="#410147"/>
    </linearGradient>
    <linearGradient id="Y" x1="923.992" x2="1073.04" y1="275.192" y2="276.45" gradientUnits="userSpaceOnUse">
      <stop stop-color="#fff"/>
      <stop offset=".52" stop-color="#fff" stop-opacity=".24"/>
      <stop offset="1" stop-color="#fff" stop-opacity="0"/>
    </linearGradient>
    <linearGradient id="aa" x1="995.734" x2="985.501" y1="195.935" y2="170.23" gradientUnits="userSpaceOnUse">
      <stop stop-color="#FFA945"/>
      <stop offset="1" stop-color="#4F0B65"/>
    </linearGradient>
    <linearGradient id="ab" x1="967.241" x2="952.74" y1="294.862" y2="294.862" gradientUnits="userSpaceOnUse">
      <stop stop-color="#BE722E"/>
      <stop offset="1" stop-color="#4F0B65"/>
    </linearGradient>
    <linearGradient id="ad" x1="988.321" x2="882.076" y1="330.496" y2="467.375" gradientUnits="userSpaceOnUse">
      <stop stop-color="#EFA928"/>
      <stop offset=".97" stop-color="#3E105B" stop-opacity="0"/>
    </linearGradient>
    <linearGradient id="ae" x1="547.939" x2="166.615" y1="348.332" y2="601.212" gradientUnits="userSpaceOnUse">
      <stop stop-color="#AB10B9"/>
      <stop offset="1" stop-color="#49294B"/>
    </linearGradient>
    <linearGradient id="af" x1="590.055" x2="344.625" y1="348.328" y2="429.943" gradientUnits="userSpaceOnUse">
      <stop stop-color="#AB10B9"/>
      <stop offset="1" stop-color="#894A8E"/>
    </linearGradient>
    <linearGradient id="ag" x1="639.929" x2="640.826" y1="448.962" y2="448.962" gradientUnits="userSpaceOnUse">
      <stop stop-color="#AB10B9"/>
      <stop offset="1" stop-color="#894A8E"/>
    </linearGradient>
    <linearGradient id="ah" x1="689.572" x2="719.463" y1="348.332" y2="577.996" gradientUnits="userSpaceOnUse">
      <stop stop-color="#AB10B9"/>
      <stop offset="1" stop-color="#894A8E"/>
    </linearGradient>
    <linearGradient id="ai" x1="733.831" x2="1122.3" y1="348.332" y2="610.693" gradientUnits="userSpaceOnUse">
      <stop stop-color="#AB10B9"/>
      <stop offset="1" stop-color="#49294B"/>
    </linearGradient>
    <filter id="t" width="221.599" height="450.891" x="1040.4" y="45.734" color-interpolation-filters="sRGB" filterUnits="userSpaceOnUse">
      <feFlood flood-opacity="0" result="BackgroundImageFix"/>
      <feBlend in="SourceGraphic" in2="BackgroundImageFix" result="shape"/>
      <feGaussianBlur result="effect1_foregroundBlur_1588_100656" stdDeviation="18"/>
    </filter>
    <filter id="A" width="362.129" height="133.199" x="852.824" y="422.129" color-interpolation-filters="sRGB" filterUnits="userSpaceOnUse">
      <feFlood flood-opacity="0" result="BackgroundImageFix"/>
      <feBlend in="SourceGraphic" in2="BackgroundImageFix" result="shape"/>
      <feGaussianBlur result="effect1_foregroundBlur_1588_100656" stdDeviation="4"/>
    </filter>
    <filter id="D" width="226.236" height="450.125" x="13.36" y="45.734" color-interpolation-filters="sRGB" filterUnits="userSpaceOnUse">
      <feFlood flood-opacity="0" result="BackgroundImageFix"/>
      <feBlend in="SourceGraphic" in2="BackgroundImageFix" result="shape"/>
      <feGaussianBlur result="effect1_foregroundBlur_1588_100656" stdDeviation="18"/>
    </filter>
    <filter id="K" width="362.588" height="136.633" x="64.586" y="421.367" color-interpolation-filters="sRGB" filterUnits="userSpaceOnUse">
      <feFlood flood-opacity="0" result="BackgroundImageFix"/>
      <feBlend in="SourceGraphic" in2="BackgroundImageFix" result="shape"/>
      <feGaussianBlur result="effect1_foregroundBlur_1588_100656" stdDeviation="4"/>
    </filter>
    <filter id="O" width="179.109" height="331.723" x="206.305" y="123.652" color-interpolation-filters="sRGB" filterUnits="userSpaceOnUse">
      <feFlood flood-opacity="0" result="BackgroundImageFix"/>
      <feBlend in="SourceGraphic" in2="BackgroundImageFix" result="shape"/>
      <feGaussianBlur result="effect1_foregroundBlur_1588_100656" stdDeviation="18"/>
    </filter>
    <filter id="T" width="252.199" height="39.008" x="234.057" y="382.426" color-interpolation-filters="sRGB" filterUnits="userSpaceOnUse">
      <feFlood flood-opacity="0" result="BackgroundImageFix"/>
      <feBlend in="SourceGraphic" in2="BackgroundImageFix" result="shape"/>
      <feGaussianBlur result="effect1_foregroundBlur_1588_100656" stdDeviation="4"/>
    </filter>
    <filter id="X" width="179.109" height="331.723" x="894.346" y="123.652" color-interpolation-filters="sRGB" filterUnits="userSpaceOnUse">
      <feFlood flood-opacity="0" result="BackgroundImageFix"/>
      <feBlend in="SourceGraphic" in2="BackgroundImageFix" result="shape"/>
      <feGaussianBlur result="effect1_foregroundBlur_1588_100656" stdDeviation="18"/>
    </filter>
    <filter id="ac" width="252.199" height="39.008" x="793.504" y="382.426" color-interpolation-filters="sRGB" filterUnits="userSpaceOnUse">
      <feFlood flood-opacity="0" result="BackgroundImageFix"/>
      <feBlend in="SourceGraphic" in2="BackgroundImageFix" result="shape"/>
      <feGaussianBlur result="effect1_foregroundBlur_1588_100656" stdDeviation="4"/>
    </filter>
    <radialGradient id="b" cx="0" cy="0" r="1" gradientTransform="matrix(0 482.778 -993.109 0 641.548 240.423)" gradientUnits="userSpaceOnUse">
      <stop stop-color="#AB13B9"/>
      <stop offset=".26" stop-color="#790085"/>
      <stop offset=".43" stop-color="#5D0066"/>
      <stop offset=".8" stop-color="#3B0141"/>
      <stop offset="1" stop-color="#39043F"/>
    </radialGradient>
    <radialGradient id="c" cx="0" cy="0" r="1" gradientTransform="matrix(0 482.778 -993.107 0 641.547 240.423)" gradientUnits="userSpaceOnUse">
      <stop stop-color="#AB13B9"/>
      <stop offset=".26" stop-color="#790085"/>
      <stop offset=".43" stop-color="#5D0066"/>
      <stop offset=".8" stop-color="#3B0141"/>
      <stop offset="1" stop-color="#39043F"/>
    </radialGradient>
    <clipPath id="a">
      <path fill="#fff" d="M0 0h1280v550H0z"/>
    </clipPath>
  </defs>
</svg>
