<svg width="1366" height="204" viewBox="0 0 1366 204" fill="none" xmlns="http://www.w3.org/2000/svg">
<mask id="mask0" mask-type="alpha" maskUnits="userSpaceOnUse" x="0" y="0" width="1366" height="204">
<rect width="1366" height="204" fill="white"/>
</mask>
<g mask="url(#mask0)">
<path d="M509.015 178.348L406.492 177.172L399.969 177.059L392.538 176.648L382.562 175.883L374.094 175.146L369.717 174.423L362.342 172.837L358.989 170.81L347.862 165.511L343.344 163.145L339.01 159.702L334.022 155.197L327.571 148.821L321.759 144.386L316.274 140.461L305.12 135.375L288.082 127.1L282.853 124.904L275.976 121.999L273.233 120.441L270.249 119.506L265.517 115.921L257.503 110.763L253.837 104.926L250.043 102.305L249.418 98.6634C249.418 98.6634 248.295 95.6029 248.196 95.3621C248.096 95.1212 246.206 92.5283 246.206 92.5283L242.057 90.4455L235.236 88.802L230.064 87.9518L224.465 86.3649L219.535 84.8206L215.57 84.8347L213.581 86.1241L206.732 85.5148L201.886 85.8974L189.296 88.6178L185.431 90.488L176.167 92.0608L169.801 93.4493L161.815 92.2024L153.928 93.5343L141.864 97.3032L131.363 100.59L124.912 102.801L122.056 104.033L109.509 101.965L94.3329 92.0891L85.1819 86.4925L78.8443 83.1486L61.48 71.842L30.6734 62.9866L-14.414 35.1025L-228 105.45C-228 105.45 -127.878 202.648 -124.539 206.006C-121.2 209.364 672 389.25 672 389.25L509.015 178.348Z" fill="white"/>
<path d="M509.013 178.348L406.49 177.172L399.968 177.059L392.536 176.648L382.561 175.883L374.092 175.146L369.716 174.423L362.341 172.837L358.987 170.81L347.861 165.511L343.342 163.145L339.008 159.702L334.021 155.197L327.57 148.821L321.758 144.386L316.273 140.461L305.118 135.375L288.081 127.1L282.852 124.904L275.974 121.999L273.232 120.441L270.248 119.506L265.516 115.921L257.502 110.764L253.835 104.926L250.041 102.305L249.416 98.6636C249.416 98.6636 248.294 95.6032 248.194 95.3623C248.095 95.1214 246.205 92.5286 246.205 92.5286L242.056 90.4458L235.235 88.8022L230.063 87.9521L224.464 86.3652L219.533 84.8208L215.569 84.835L213.579 86.1243L206.73 85.5151L201.885 85.8976L189.295 88.618L185.43 90.4883L176.165 92.061L169.799 93.4495L161.813 92.2027" stroke="#006DAE" stroke-width="0.3" stroke-miterlimit="10"/>
<path d="M508.928 179.411L406.377 177.739L399.84 177.583L394.355 177.257L392.423 177.144L382.462 176.336L373.993 175.571L369.602 174.848L366.518 174.197L362.227 173.247L358.831 171.249L348.813 166.56L347.676 166.021L343.143 163.655L338.753 160.255L336.195 158.002L333.68 155.777L327.115 149.458L321.402 145.023L316.017 141.084L313.616 139.951L305.005 135.969L288.095 127.667L282.994 125.428L276.287 122.467L273.53 120.936L270.56 120.001L265.772 116.502L257.715 111.458L255.512 108.241L253.821 105.776L249.985 103.24L249.146 99.7118C249.146 99.7118 247.839 96.7506 247.739 96.5239C247.654 96.2972 245.636 93.7751 245.636 93.7751L241.459 91.7349L234.666 90.1055L229.508 89.2412L227.121 88.5752L223.91 87.6401L222.261 87.1159L218.979 86.0957L215.029 86.0674L213.011 87.2717L206.19 86.5916L201.359 86.8892L198.204 87.4984L188.783 89.2978L185.302 90.8281L184.904 91.0123L175.682 92.3299L169.344 93.5201L161.43 92.2024" stroke="#006DAE" stroke-width="0.3" stroke-miterlimit="10"/>
<path d="M508.843 180.487L406.249 178.305L399.698 178.121L394.213 177.781L392.295 177.653L382.334 176.803L373.865 176.01L369.46 175.287L366.362 174.635L362.085 173.672L358.646 171.702L348.6 167.083L347.477 166.545L342.93 164.179L338.497 160.821L335.882 158.596L333.325 156.386L326.646 150.137L321.033 145.688L315.761 141.75L313.431 140.588L304.905 136.578L288.124 128.247L283.15 125.966L276.614 122.948L273.857 121.446L270.901 120.525L266.056 117.096L257.942 112.151L255.626 109.02L253.835 106.64L249.956 104.174L248.891 100.774C248.891 100.774 247.399 97.8975 247.313 97.685C247.228 97.4724 245.097 95.0354 245.097 95.0354L240.89 93.0518L234.098 91.4507L228.969 90.5864L226.581 89.9205L223.384 88.9712L221.736 88.4328L218.453 87.4126L214.517 87.3276L212.457 88.4328L205.679 87.696L200.862 87.9086L197.721 88.4328L188.329 90.0055L184.819 91.3941L184.435 91.5641L175.27 92.6267L168.961 93.6327L161.117 92.23" stroke="#006DAE" stroke-width="0.3" stroke-miterlimit="10"/>
<path d="M508.758 181.55L406.136 178.872L399.571 178.659L394.086 178.305L392.182 178.178L382.235 177.299L373.766 176.463L369.361 175.741L366.263 175.103L361.986 174.125L358.505 172.198L348.43 167.636L347.308 167.098L342.732 164.732L338.242 161.416L335.585 159.22L332.984 157.038L326.178 150.846L320.664 146.383L315.492 142.43L313.219 141.254L304.778 137.23L288.153 128.856L283.307 126.519L276.941 123.444L274.17 121.97L271.229 121.049L266.312 117.706L258.142 112.874L255.698 109.828L253.808 107.532L249.872 105.138L248.593 101.851C248.593 101.851 246.93 99.0737 246.845 98.8753C246.76 98.677 244.515 96.3108 244.515 96.3108L240.28 94.3697L233.545 92.7686L228.444 91.8902L226.056 91.2384L222.873 90.2749L221.225 89.7365L217.943 88.7305L214.021 88.603L211.932 89.609L205.182 88.8156L200.379 88.9431L197.253 89.3965L187.875 90.7283L184.322 91.9752L183.939 92.131L174.816 92.9528L168.535 93.7746L160.763 92.2869" stroke="#006DAE" stroke-width="0.3" stroke-miterlimit="10"/>
<path d="M508.673 182.613L406.022 179.425L399.443 179.184L393.958 178.816L392.068 178.674L382.121 177.753L373.652 176.889L369.233 176.166L366.121 175.528L361.858 174.537L358.334 172.638L348.231 168.147L347.123 167.608L342.533 165.242L338 161.969L335.286 159.801L332.643 157.633L325.723 151.512L320.309 147.035L315.25 143.082L313.034 141.892L304.678 137.854L288.167 129.452L283.449 127.071L277.254 123.94L274.483 122.509L271.57 121.588L266.596 118.329L258.383 113.611L255.811 110.664L253.822 108.454L249.843 106.144L248.337 102.984C248.337 102.984 246.49 100.307 246.419 100.108C246.333 99.9098 243.975 97.6287 243.975 97.6287L239.712 95.7442L233.005 94.1573L227.932 93.2789L225.545 92.6413L222.376 91.6636L220.727 91.1111L217.445 90.1192L213.523 89.9492L211.392 90.8702L204.685 90.0059L199.882 90.0342L196.756 90.4026L187.406 91.5078L183.825 92.6129L183.455 92.7546L174.375 93.3214L168.123 93.959L160.407 92.4004" stroke="#006DAE" stroke-width="0.3" stroke-miterlimit="10"/>
<path d="M508.587 183.689L405.908 180.005L399.329 179.736L393.844 179.353L391.968 179.212L382.021 178.248L373.552 177.356L369.133 176.619L366.007 175.981L361.758 174.975L358.192 173.105L348.06 168.684L346.952 168.16L342.348 165.794L337.758 162.549L335.002 160.41L332.316 158.256L325.268 152.192L319.953 147.715L315.008 143.747L312.849 142.543L304.579 138.491L288.209 130.061L283.619 127.638L277.594 124.45L274.809 123.047L271.91 122.14L266.866 118.952L258.596 114.333L255.896 111.471L253.807 109.346L249.786 107.107L248.052 104.061C248.052 104.061 246.035 101.482 245.949 101.298C245.878 101.114 243.392 98.9178 243.392 98.9178L239.1 97.09L232.422 95.5173L227.377 94.6388L224.99 94.0012L221.835 93.0094L220.187 92.4569L216.905 91.4792L212.997 91.2667L210.837 92.0885L204.159 91.1675L199.37 91.1108L196.258 91.4084L186.922 92.2868L183.313 93.2503L182.958 93.3778L173.935 93.7037L167.725 94.1571L160.08 92.5135" stroke="#006DAE" stroke-width="0.3" stroke-miterlimit="10"/>
<path d="M508.502 184.753L405.795 180.559L399.201 180.261L393.716 179.865L391.855 179.709L381.922 178.703L373.453 177.782L369.02 177.045L365.894 176.422L361.659 175.387L358.05 173.56L347.89 169.21L346.796 168.686L342.164 166.319L337.531 163.117L334.718 161.006L331.989 158.867L324.828 152.873L319.613 148.382L314.767 144.415L312.678 143.196L304.494 139.115L288.252 130.657L283.79 128.177L277.936 124.932L275.151 123.558L272.266 122.651L267.165 119.548L258.852 115.043L256.039 112.266L253.85 110.225L249.786 108.058L247.84 105.139C247.84 105.139 245.637 102.645 245.566 102.489C245.495 102.319 242.895 100.194 242.895 100.194L238.504 98.3944L231.854 96.8359L226.838 95.9432L224.45 95.3198L221.31 94.3138L219.662 93.7471L216.379 92.7694L212.486 92.5144L210.283 93.2512L203.647 92.2735L198.873 92.1318L195.761 92.3585L186.454 92.9961L182.802 93.8179L182.446 93.9313L173.466 94.0021L167.285 94.2571L159.711 92.5286" stroke="#006DAE" stroke-width="0.3" stroke-miterlimit="10"/>
<path d="M508.416 185.829L405.68 181.139L399.072 180.799L393.587 180.388L391.74 180.218L381.808 179.17L373.339 178.206L368.905 177.47L365.765 176.846L361.53 175.798L357.878 173.998L347.69 169.719L346.596 169.195L341.949 166.829L337.274 163.669L334.418 161.586L331.647 159.461L324.372 153.524L319.257 149.019L314.525 145.037L312.493 143.805L304.393 139.71L288.294 131.209L283.96 128.687L278.276 125.385L275.476 124.039L272.606 123.133L267.434 120.101L259.064 115.708L256.123 113.016L253.835 111.061L249.714 108.978L247.54 106.173C247.54 106.173 245.153 103.778 245.096 103.622C245.025 103.467 242.297 101.412 242.297 101.412L237.949 99.6835L231.327 98.1391L226.339 97.2465L223.952 96.6231L220.826 95.6029L219.178 95.0362L215.895 94.0727L212.016 93.761L209.785 94.3986L203.178 93.3501L198.403 93.1234L195.305 93.2651L186.012 93.676L182.332 94.3561L181.991 94.4553L173.053 94.2711L166.9 94.3419L159.397 92.5425" stroke="#006DAE" stroke-width="0.3" stroke-miterlimit="10"/>
<path d="M508.332 186.892L405.567 181.692L398.945 181.324L393.446 180.899L391.613 180.729L381.695 179.638L373.226 178.646L368.778 177.909L365.638 177.3L361.417 176.237L357.723 174.466L347.506 170.244L346.426 169.72L341.765 167.353L337.034 164.236L334.135 162.182L331.307 160.071L323.904 154.205L318.888 149.685L314.255 145.704L312.28 144.443L304.266 140.334L288.28 131.833L284.074 129.268L278.561 125.91L275.747 124.592L272.891 123.7L267.662 120.753L259.25 116.474L256.18 113.867L253.793 111.996L249.63 109.985L247.242 107.307C247.242 107.307 244.685 105.011 244.628 104.87C244.571 104.728 241.715 102.758 241.715 102.758L237.338 101.087L230.759 99.5705L225.8 98.6637L223.413 98.0545L220.301 97.0202L218.653 96.4393L215.37 95.49L211.491 95.1357L209.232 95.6742L202.667 94.569L197.906 94.2573L194.823 94.3281L185.558 94.4982L181.849 95.0366L181.523 95.1216L172.642 94.6965L166.517 94.5832L159.071 92.6987" stroke="#006DAE" stroke-width="0.3" stroke-miterlimit="10"/>
<path d="M508.246 187.968L405.439 182.272L398.817 181.876L393.318 181.436L391.499 181.252L381.581 180.119L373.112 179.099L368.664 178.362L365.51 177.753L361.304 176.676L357.566 174.947L347.307 170.796L346.227 170.286L341.552 167.92L336.778 164.845L333.822 162.819L330.952 160.722L323.435 154.913L318.518 150.393L313.999 146.411L312.095 145.136L304.166 141.013L288.337 132.455L284.259 129.848L278.916 126.433L276.102 125.144L273.26 124.251L267.96 121.389L259.491 117.21L256.294 114.688L253.807 112.902L249.601 110.975L246.987 108.411C246.987 108.411 244.244 106.215 244.187 106.073C244.13 105.931 241.161 104.047 241.161 104.047L236.756 102.417L230.205 100.916L225.274 100.009L222.887 99.3995L219.775 98.351L218.127 97.7559L214.844 96.8208L210.979 96.4241L208.677 96.8775L202.141 95.7156L197.395 95.3189L194.311 95.3048L185.061 95.2481L181.324 95.6448L180.997 95.7156L172.158 95.0355L166.062 94.738L158.688 92.7827" stroke="#006DAE" stroke-width="0.3" stroke-miterlimit="10"/>
<path d="M508.161 189.031L405.326 182.825L398.69 182.4L393.19 181.947L391.386 181.763L381.482 180.587L373.013 179.538L368.551 178.801L365.382 178.192L361.176 177.101L357.396 175.401L347.108 171.32L346.043 170.81L341.339 168.458L336.508 165.426L333.51 163.428L330.597 161.346L322.952 155.607L318.135 151.073L313.716 147.078L311.868 145.788L304.025 141.637L288.323 133.051L284.373 130.387L279.2 126.916L276.372 125.655L273.545 124.762L268.188 121.971L259.662 117.904L256.351 115.467L253.765 113.767L249.516 111.911L246.688 109.46C246.688 109.46 243.775 107.363 243.719 107.235C243.662 107.108 240.578 105.294 240.578 105.294L236.145 103.721L229.623 102.234L224.72 101.313L222.333 100.718L219.235 99.655L217.587 99.0599L214.304 98.1248L210.454 97.6856L208.123 98.0398L201.629 96.8213L196.883 96.3395L193.814 96.2545L184.592 95.957L180.812 96.212L180.5 96.2687L171.704 95.3477L165.65 94.866L158.347 92.8257" stroke="#006DAE" stroke-width="0.3" stroke-miterlimit="10"/>
<path d="M508.076 190.108L405.212 183.406L398.562 182.953L393.063 182.485L391.272 182.287L381.368 181.068L372.899 179.991L368.423 179.255L365.254 178.66L361.063 177.54L357.24 175.868L346.924 171.859L345.858 171.348L341.141 168.996L336.267 166.007L333.211 164.037L330.256 161.969L322.497 156.287L317.78 151.739L313.474 147.743L311.684 146.44L303.925 142.274L288.351 133.645L284.529 130.939L279.527 127.411L276.7 126.193L273.886 125.314L268.472 122.608L259.904 118.655L256.465 116.303L253.779 114.673L249.488 112.888L246.433 110.564C246.433 110.564 243.335 108.552 243.292 108.439C243.25 108.326 240.038 106.597 240.038 106.597L235.591 105.067L229.097 103.593L224.223 102.672L221.836 102.077L218.752 101.001L217.104 100.391L213.822 99.4703L209.971 98.9886L207.598 99.2436L201.132 97.9542L196.4 97.3875L193.331 97.2316L184.123 96.7074L180.315 96.8207L180.017 96.8633L171.278 95.6872L165.253 95.0213L158.006 92.896" stroke="#006DAE" stroke-width="0.3" stroke-miterlimit="10"/>
<path d="M507.976 191.17L405.084 183.959L398.419 183.463L392.92 182.967L391.144 182.768L381.24 181.507L372.757 180.388L368.281 179.651L365.098 179.056L360.92 177.923L357.055 176.293L346.71 172.354L345.659 171.844L340.927 169.492L335.996 166.545L332.898 164.604L329.9 162.55L322.028 156.925L317.41 152.362L313.204 148.353L311.484 147.035L303.811 142.855L288.379 134.198L284.671 131.449L279.839 127.865L276.998 126.675L274.212 125.796L268.727 123.175L260.102 119.321L256.536 117.068L253.75 115.524L249.402 113.824L246.134 111.613C246.134 111.613 242.852 109.7 242.823 109.601C242.781 109.502 239.455 107.844 239.455 107.844L234.979 106.371L228.514 104.911L223.669 103.991L221.281 103.41L218.212 102.319L216.564 101.709L213.295 100.803L209.459 100.278L207.057 100.448L200.635 99.1023L195.917 98.4506L192.862 98.2097L183.682 97.4588L179.846 97.4304L179.547 97.4588L170.851 96.0277L164.855 95.1634L157.679 92.9673" stroke="#006DAE" stroke-width="0.3" stroke-miterlimit="10"/>
<path d="M507.891 192.233L404.971 184.526L398.306 184.001L392.807 183.491L391.045 183.279L381.155 181.975L372.672 180.828L368.182 180.091L364.985 179.51L360.821 178.362L356.899 176.761L346.526 172.879L345.475 172.383L340.729 170.031L335.755 167.126L332.601 165.214L329.56 163.173L321.56 157.619L317.041 153.043L312.949 149.033L311.286 147.701L303.698 143.507L288.394 134.822L284.813 132.016L280.153 128.375L277.311 127.213L274.54 126.335L268.998 123.784L260.33 120.044L256.636 117.876L253.751 116.417L249.36 114.787L245.865 112.704C245.865 112.704 242.412 110.891 242.369 110.806C242.326 110.721 238.888 109.148 238.888 109.148L234.383 107.731L227.946 106.286L223.129 105.351L220.742 104.77L217.687 103.665L216.038 103.041L212.77 102.134L208.948 101.554L206.504 101.624L200.109 100.222L195.392 99.4707L192.337 99.159L183.171 98.1672L179.292 97.9972L179.008 98.0113L170.354 96.3394L164.386 95.2909L157.281 93.0098" stroke="#006DAE" stroke-width="0.3" stroke-miterlimit="10"/>
<path d="M507.806 193.31L404.857 185.092L398.178 184.54L392.679 184.015L390.931 183.803L381.042 182.471L372.558 181.295L368.068 180.558L364.871 179.977L360.707 178.816L356.743 177.243L346.341 173.431L345.304 172.936L340.53 170.584L335.514 167.721L332.316 165.837L329.233 163.811L321.119 158.314L316.7 153.737L312.707 149.713L311.101 148.353L303.599 144.145L288.437 135.431L284.984 132.583L280.494 128.885L277.637 127.752L274.881 126.887L269.268 124.422L260.543 120.795L256.735 118.712L253.751 117.338L249.318 115.793L245.609 113.824C245.609 113.824 241.971 112.11 241.943 112.025C241.914 111.94 238.333 110.452 238.333 110.452L233.801 109.077L227.392 107.646L222.603 106.711L220.216 106.145L217.175 105.011L215.527 104.388L212.259 103.495L208.45 102.872L205.978 102.843L199.626 101.37L194.923 100.534L191.882 100.137L182.745 98.9185L178.837 98.6068H178.567L169.971 96.6799L164.031 95.4472L156.997 93.0811" stroke="#006DAE" stroke-width="0.3" stroke-miterlimit="10"/>
<path d="M507.721 194.372L404.743 185.658L398.05 185.077L392.551 184.539L390.818 184.312L380.942 182.938L372.459 181.734L367.954 180.997L364.743 180.416L360.594 179.24L356.586 177.71L346.156 173.969L345.119 173.473L340.33 171.121L335.258 168.302L332.018 166.446L328.892 164.434L320.65 159.007L316.33 154.417L312.451 150.393L310.916 149.018L303.499 144.782L288.465 136.026L285.14 133.135L280.82 129.381L277.95 128.275L275.207 127.411L269.538 125.017L260.77 121.503L256.834 119.505L253.751 118.216L249.275 116.742L245.339 114.9C245.339 114.9 241.53 113.285 241.502 113.214C241.474 113.143 237.779 111.726 237.779 111.726L233.218 110.409L226.838 108.992L222.077 108.043L219.69 107.49L216.663 106.342L215.015 105.705L211.747 104.826L207.939 104.16L205.438 104.047L199.129 102.517L194.439 101.596L191.413 101.128L182.29 99.6689L178.354 99.2155L178.084 99.2014L169.53 97.0194L163.619 95.6025L156.642 93.1655" stroke="#006DAE" stroke-width="0.3" stroke-miterlimit="10"/>
<path d="M507.636 195.45L404.63 186.226L397.923 185.617L392.423 185.064L390.704 184.837L380.828 183.42L372.345 182.174L367.841 181.423L364.615 180.856L360.48 179.652L356.43 178.15L345.972 174.48L344.949 173.984L340.146 171.632L335.03 168.855L331.734 167.013L328.565 165.015L320.21 159.645L315.989 155.041L312.21 151.003L310.732 149.614L303.4 145.363L288.508 136.579L285.311 133.632L281.161 129.82L278.291 128.744L275.563 127.879L269.822 125.57L260.998 122.155L256.934 120.242L253.751 119.038L249.218 117.635L245.055 115.907C245.055 115.907 241.062 114.377 241.033 114.32C241.005 114.263 237.197 112.931 237.197 112.931L232.607 111.67L226.255 110.268L221.523 109.318L219.136 108.766L216.124 107.604L214.475 106.952L211.207 106.088L207.413 105.379L204.87 105.167L198.589 103.58L193.9 102.574L190.901 102.078L181.807 100.392L177.843 99.7969L177.587 99.7686L169.075 97.3457L163.207 95.7447L156.301 93.2227" stroke="#006DAE" stroke-width="0.3" stroke-miterlimit="10"/>
<path d="M507.55 196.513L404.502 186.793L397.795 186.141L392.281 185.574L390.576 185.334L380.7 183.874L372.217 182.599L367.698 181.848L364.473 181.281L360.352 180.063L356.26 178.589L345.759 174.99L344.735 174.509L339.918 172.157L334.746 169.422L331.407 167.608L328.181 165.625L319.712 160.326L315.591 155.707L311.925 151.669L310.504 150.266L303.257 146.001L288.522 137.202L285.453 134.213L281.474 130.345L278.589 129.31L275.875 128.46L270.078 126.236L261.197 122.934L257.005 121.107L253.722 119.987L249.147 118.67L244.77 117.069C244.77 117.069 240.592 115.638 240.578 115.595C240.564 115.553 236.656 114.263 236.656 114.263L232.038 113.045L225.715 111.656L221.011 110.693L218.624 110.154L215.626 108.978L213.978 108.326L210.709 107.462L206.93 106.711L204.358 106.414L198.12 104.77L193.445 103.679L190.432 103.056L181.352 101.143L177.345 100.406L177.103 100.364L168.649 97.6858L162.809 95.8863L155.974 93.2935" stroke="#006DAE" stroke-width="0.3" stroke-miterlimit="10"/>
<path d="M507.465 197.589L404.388 187.359L397.667 186.679L392.153 186.098L390.463 185.843L380.601 184.341L372.118 183.038L367.599 182.287L364.359 181.734L360.239 180.501L356.103 179.07L345.574 175.528L344.565 175.046L339.72 172.694L334.505 170.002L331.109 168.217L327.84 166.262L319.244 161.019L315.222 156.4L311.656 152.362L310.291 150.945L303.13 146.666L288.508 137.825L285.567 134.793L281.758 130.868L278.874 129.862L276.174 129.012L270.305 126.859L261.382 123.671L257.076 121.928L253.694 120.894L249.076 119.647L244.472 118.159C244.472 118.159 240.124 116.827 240.11 116.785C240.096 116.756 236.046 115.566 236.046 115.566L231.399 114.404L225.104 113.03L220.429 112.066L218.042 111.528L215.058 110.338L213.41 109.672L210.141 108.822L206.376 108.014L203.761 107.617L197.552 105.903L192.891 104.727L189.878 104.033L180.827 101.879L176.791 101.001L176.55 100.944L168.138 98.0253L162.326 96.0417L155.548 93.3638" stroke="#006DAE" stroke-width="0.3" stroke-miterlimit="10"/>
<path d="M507.379 198.652L404.274 187.927L397.538 187.218L392.025 186.623L390.348 186.368L380.487 184.824L372.003 183.492L367.47 182.741L364.216 182.188L360.11 180.941L355.932 179.539L345.374 176.067L344.366 175.586L339.506 173.234L334.234 170.584L330.795 168.827L327.484 166.886L318.774 161.714L314.866 157.081L311.413 153.029L310.12 151.584L303.044 147.276L288.55 138.393L285.736 135.304L282.099 131.322L279.2 130.345L276.514 129.495L270.589 127.426L261.608 124.337L257.175 122.679L253.693 121.73L249.033 120.554L244.216 119.194C244.216 119.194 239.683 117.961 239.683 117.933C239.668 117.905 235.505 116.814 235.505 116.814L230.83 115.694L224.564 114.334L219.917 113.371L217.53 112.846L214.546 111.642L212.897 110.976L209.629 110.14L205.864 109.29L203.221 108.794L197.054 107.023L192.393 105.762L189.395 104.983L180.357 102.602L176.293 101.582L176.066 101.511L167.696 98.3375L161.913 96.1696L155.206 93.4067" stroke="#006DAE" stroke-width="0.3" stroke-miterlimit="10"/>
<path d="M507.294 199.728L404.16 188.492L397.411 187.755L391.897 187.146L390.235 186.877L380.387 185.29L371.904 183.916L367.371 183.165L364.117 182.626L360.025 181.365L355.805 179.991L345.218 176.591L344.224 176.109L339.35 173.757L334.035 171.15L330.54 169.421L327.186 167.494L318.348 162.379L314.54 157.732L311.186 153.68L309.95 152.22L302.959 147.899L288.607 138.987L285.921 135.856L282.454 131.818L279.555 130.868L276.898 130.032L270.902 128.049L261.878 125.073L257.317 123.515L253.736 122.65L249.019 121.559L243.974 120.313C243.974 120.313 239.271 119.165 239.257 119.165C239.257 119.151 234.965 118.131 234.965 118.131L230.262 117.068L224.024 115.722L219.406 114.744L217.018 114.22L214.063 112.987L212.414 112.307L209.146 111.485L205.395 110.593L202.709 110.012L196.585 108.17L191.938 106.824L188.94 105.974L179.931 103.353L175.824 102.191L175.611 102.106L167.313 98.677L161.558 96.3249L154.922 93.4912" stroke="#006DAE" stroke-width="0.3" stroke-miterlimit="10"/>
<path d="M507.209 200.792L391.769 187.658L363.99 183.067L345.02 177.116L330.241 170.032L317.893 163.06L309.765 152.873L288.635 139.583L282.781 132.314L257.417 124.309L216.507 115.552L211.903 113.64L202.184 111.203L188.457 106.938L175.341 102.786L154.581 93.5483" stroke="#006DAE" stroke-width="0.3" stroke-miterlimit="10"/>
<path d="M509.696 200.989L391.117 187.543L363.322 182.967L344.367 177.002L329.574 169.917L317.226 162.946L309.098 152.759L287.968 139.469L282.128 132.2L256.75 124.195L215.84 115.439L211.25 113.526L201.517 111.089L187.804 106.824L174.674 102.673L153.914 93.4487" stroke="#006DAE" stroke-width="0.3" stroke-miterlimit="10"/>
<path d="M509.767 201.103L422.392 191.355L390.548 187.799L388.686 187.572L364.672 183.534L360.31 182.783L347.009 178.674L340.956 176.69L337.858 175.188L326.846 169.96L325.865 169.493L318.974 165.738L312.991 162.592L307.862 156.585L304.565 152.745L296.579 147.871L283.506 139.937L277.481 132.937L260.33 127.511L252.529 125.003L225.659 118.981L212.557 116.005L208.067 114.107L202.099 112.534L198.589 111.613L185.246 107.292L180.131 105.606C180.131 105.606 172.599 103.197 172.415 103.098C172.187 102.999 162.283 98.5779 162.269 98.5779C162.241 98.5637 151.91 94.1006 151.91 94.1006" stroke="#006DAE" stroke-width="0.3" stroke-miterlimit="10"/>
<path d="M509.838 201.23L420.629 191.44L388.132 187.869L386.242 187.628L361.716 183.449L357.254 182.641L343.613 178.49L337.517 176.393L334.362 174.862L323.108 169.563L322.113 169.11L314.952 165.355L308.714 162.295L303.413 156.5L299.989 152.816L292.031 148.098L278.987 140.461L272.792 133.731L255.925 128.361L248.266 125.839L221.978 119.661L209.217 116.586L204.827 114.702L198.986 113.087L195.59 112.137L182.617 107.745L177.643 106.031C177.643 106.031 170.425 103.693 170.055 103.523C169.615 103.31 160.094 99.0739 160.066 99.0597C160.023 99.0456 149.807 94.7383 149.807 94.7383" stroke="#006DAE" stroke-width="0.3" stroke-miterlimit="10"/>
<path d="M509.909 201.343L418.882 191.51L385.716 187.925L383.812 187.67L358.789 183.349L354.242 182.499L340.274 178.305L334.135 176.109L330.924 174.536L319.428 169.166L318.419 168.713L310.988 164.944L304.494 161.954L299.023 156.358L295.485 152.815L287.556 148.253L274.554 140.928L268.174 134.467L251.591 129.168L244.088 126.646L218.397 120.327L205.978 117.153L201.686 115.283L195.988 113.625L192.706 112.647L180.102 108.198L175.271 106.47C175.271 106.47 168.379 104.203 167.825 103.948C167.157 103.636 158.034 99.5694 157.992 99.5553C157.92 99.5269 147.817 95.3896 147.817 95.3896" stroke="#006DAE" stroke-width="0.3" stroke-miterlimit="10"/>
<path d="M509.98 201.457L417.12 191.581L383.301 187.982L381.382 187.713L355.862 183.236L351.215 182.343L336.906 178.107L330.725 175.811L327.456 174.196L315.719 168.755L314.696 168.302L306.994 164.519L300.259 161.614L294.618 156.23L290.952 152.83L283.065 148.438L270.092 141.424L263.541 135.232L247.214 129.99L239.854 127.468L214.759 120.993L202.681 117.72L198.503 115.864L192.947 114.178L189.779 113.186L177.558 108.666L172.883 106.909C172.883 106.909 166.318 104.727 165.565 104.373C164.67 103.962 155.96 100.052 155.903 100.038C155.803 100.009 145.828 96.042 145.828 96.042" stroke="#006DAE" stroke-width="0.3" stroke-miterlimit="10"/>
<path d="M510.052 201.57L415.373 191.652L380.9 188.039L378.968 187.756L352.936 183.137L348.204 182.187L333.553 177.909L327.33 175.5L324.005 173.842L312.026 168.33L310.989 167.877L303.031 164.08L296.04 161.26L290.228 156.089L286.448 152.83L278.59 148.593L265.66 141.892L258.938 135.969L242.924 130.798L235.72 128.275L211.208 121.659L199.471 118.287L195.393 116.445L189.979 114.716L186.909 113.696L175.058 109.119L170.526 107.348C170.526 107.348 164.273 105.237 163.35 104.798C162.241 104.274 153.914 100.547 153.843 100.519C153.73 100.476 143.868 96.6792 143.868 96.6792" stroke="#006DAE" stroke-width="0.3" stroke-miterlimit="10"/>
<path d="M510.122 201.684L413.61 191.723L378.469 188.096L376.508 187.813L349.979 183.038L345.147 182.046L330.156 177.739L323.89 175.231L320.508 173.545L308.288 167.962L307.236 167.509L299.009 163.698L291.762 160.963L285.779 155.99L281.872 152.873L274.042 148.792L261.14 142.388L254.248 136.734L238.504 131.634L231.442 129.112L207.527 122.339L196.13 118.868L192.152 117.054L186.866 115.283L183.91 114.249L172.429 109.601L168.052 107.816C168.052 107.816 162.127 105.776 161.004 105.251C159.668 104.628 151.739 101.072 151.668 101.043C151.526 100.987 141.778 97.3594 141.778 97.3594" stroke="#006DAE" stroke-width="0.3" stroke-miterlimit="10"/>
<path d="M510.194 201.797L411.849 191.794L376.054 188.152L374.079 187.855L347.052 182.938L342.136 181.89L326.804 177.54L320.48 174.933L317.042 173.204L304.58 167.551L303.514 167.098L295.017 163.272L287.514 160.622L281.347 155.862L277.311 152.886L269.51 148.976L256.65 142.883L249.588 137.499L234.128 132.469L227.222 129.933L203.904 123.019L192.849 119.448L188.969 117.649L183.797 115.821L180.955 114.758L169.857 110.04L165.623 108.226C165.623 108.226 160.024 106.271 158.717 105.648C157.154 104.911 149.623 101.525 149.538 101.496C149.367 101.44 139.747 97.9824 139.747 97.9824" stroke="#006DAE" stroke-width="0.3" stroke-miterlimit="10"/>
<path d="M510.251 201.91L410.087 191.865L373.624 188.195L371.635 187.883L344.111 182.825L339.095 181.734L323.422 177.342L317.056 174.621L313.56 172.85L300.857 167.14L299.777 166.701L291.009 162.861L283.251 160.297L276.913 155.734L272.764 152.901L264.991 149.146L252.16 143.365L244.913 138.25L229.737 133.277L222.973 130.741L200.238 123.67L189.509 120.001L185.73 118.215L180.728 116.359L177.999 115.268L167.271 110.494L163.179 108.666C163.179 108.666 157.893 106.781 156.401 106.087C154.624 105.251 147.491 102.035 147.378 101.992C147.179 101.921 137.687 98.6343 137.687 98.6343" stroke="#006DAE" stroke-width="0.3" stroke-miterlimit="10"/>
<path d="M510.322 202.023L408.325 191.935L371.209 188.251L369.191 187.926L341.155 182.711L336.054 181.578L320.04 177.143L313.631 174.323L310.079 172.51L297.119 166.729L296.025 166.29L286.988 162.436L278.988 159.942L272.48 155.592L268.203 152.9L260.458 149.301L247.669 143.818L240.252 138.972L225.374 134.098L218.753 131.562L196.614 124.336L186.227 120.567L182.546 118.796L177.672 116.897L175.044 115.792L164.685 110.947L160.749 109.09C160.749 109.09 155.789 107.277 154.113 106.498C152.109 105.562 145.374 102.516 145.26 102.474C145.047 102.403 135.654 99.2856 135.654 99.2856" stroke="#006DAE" stroke-width="0.3" stroke-miterlimit="10"/>
<path d="M510.392 202.137L406.576 192.006L368.807 188.308L366.775 187.968L338.242 182.613L333.041 181.422L316.686 176.945L310.234 174.026L306.625 172.184L293.424 166.333L292.316 165.893L283.009 162.039L274.753 159.631L268.074 155.493L263.669 152.943L255.953 149.514L243.193 144.343L235.605 139.766L220.997 134.934L214.532 132.398L192.99 125.03L182.944 121.162L179.377 119.405L174.645 117.478L172.13 116.345L162.155 111.443L158.361 109.572C158.361 109.572 153.714 107.844 151.853 106.965C149.622 105.917 143.285 103.04 143.157 102.998C142.915 102.913 133.65 99.9658 133.65 99.9658" stroke="#006DAE" stroke-width="0.3" stroke-miterlimit="10"/>
<path d="M510.464 202.25L404.815 192.077L366.378 188.365L364.331 188.01L335.301 182.499L330.001 181.266L313.319 176.746L306.825 173.728L303.159 171.844L289.716 165.921L288.608 165.482L279.03 161.614L270.519 159.29L263.67 155.351L259.151 152.943L251.464 149.67L238.746 144.81L230.988 140.503L216.65 135.742L210.327 133.192L189.367 125.668L179.662 121.701L176.195 119.972L171.605 118.003L169.204 116.855L159.598 111.882L155.946 109.997C155.946 109.997 151.626 108.34 149.58 107.376C147.136 106.229 141.196 103.522 141.054 103.466C140.784 103.366 131.647 100.589 131.647 100.589" stroke="#006DAE" stroke-width="0.3" stroke-miterlimit="10"/>
<path d="M510.535 202.377L403.052 192.162L363.962 188.435L361.901 188.067L332.359 182.414L326.974 181.124L309.951 176.562L303.414 173.431L299.691 171.504L286.007 165.51L284.885 165.071L275.037 161.189L266.27 158.95L259.25 155.224L254.604 152.971L246.945 149.854L234.255 145.292L226.312 141.254L212.259 136.55L206.092 133.999L185.729 126.334L176.365 122.268L172.997 120.553L168.55 118.541L166.262 117.365L157.026 112.321L153.53 110.408C153.53 110.408 149.537 108.836 147.292 107.773C144.621 106.526 139.079 103.99 138.923 103.933C138.638 103.834 129.615 101.227 129.615 101.227" stroke="#006DAE" stroke-width="0.3" stroke-miterlimit="10"/>
<path d="M510.606 202.491L401.305 192.233L361.546 188.492L359.457 188.11L329.418 182.301L323.933 180.969L306.568 176.364L299.989 173.134L296.21 171.164L282.284 165.1L281.147 164.661L271.03 160.764L262.007 158.611L254.817 155.097L250.042 152.986L242.412 150.038L229.765 145.788L221.651 142.019L207.882 137.386L201.857 134.835L182.106 127.014L173.083 122.849L169.814 121.148L165.495 119.094L163.306 117.89L154.454 112.789L151.114 110.862C151.114 110.862 147.434 109.36 145.018 108.212C142.12 106.852 136.976 104.486 136.805 104.429C136.493 104.316 127.583 101.879 127.583 101.879" stroke="#006DAE" stroke-width="0.3" stroke-miterlimit="10"/>
<path d="M510.676 202.605L399.542 192.304L359.13 188.55L357.027 188.153L326.49 182.202L320.92 180.813L303.215 176.18L296.593 172.851L292.756 170.853L278.589 164.718L277.438 164.293L267.051 160.382L257.772 158.313L250.411 154.998L245.523 153.028L237.921 150.237L225.303 146.298L217.019 142.798L203.534 138.236L197.651 135.686L178.468 127.723L169.786 123.458L166.617 121.772L162.439 119.675L160.365 118.456L151.881 113.285L148.684 111.33C148.684 111.33 145.331 109.899 142.716 108.68C139.604 107.221 134.858 105.024 134.673 104.954C134.332 104.84 125.551 102.559 125.551 102.559" stroke="#006DAE" stroke-width="0.3" stroke-miterlimit="10"/>
<path d="M510.748 202.718L397.795 192.375L356.715 188.592L354.598 188.181L323.549 182.088L317.88 180.657L299.833 175.981L293.155 172.538L289.261 170.498L274.881 164.306L273.716 163.881L263.059 159.957L253.538 157.959L246.007 154.856L240.991 153.028L233.417 150.393L220.842 146.766L212.387 143.535L199.186 139.029L193.46 136.465L174.873 128.346L166.532 123.982L163.477 122.31L159.442 120.171L157.481 118.924L149.367 113.696L146.312 111.726C146.312 111.726 143.285 110.38 140.486 109.063C137.146 107.49 132.798 105.478 132.599 105.407C132.244 105.28 123.576 103.183 123.576 103.183" stroke="#006DAE" stroke-width="0.3" stroke-miterlimit="10"/>
<path d="M510.819 202.832L396.033 192.446L354.313 188.649L320.636 181.976L296.494 175.77L285.837 170.145L271.186 163.882L259.08 159.518L249.303 157.605L241.602 154.715L228.927 150.549L216.38 147.22L194.823 139.824L171.249 128.999L156.386 120.71L143.896 112.152C143.896 112.152 130.866 106.017 130.482 105.875C130.098 105.734 121.544 103.807 121.544 103.807" stroke="#006DAE" stroke-width="0.3" stroke-miterlimit="10"/>
<path d="M492.645 200.749L396.019 192.035L354.285 188.238L320.608 181.564L296.466 175.358L285.809 169.733L271.159 163.471L259.052 159.107L249.276 157.194L241.574 154.303L228.899 150.138L216.352 146.808L194.796 139.412L171.222 128.587L156.358 120.299L143.868 111.741C143.868 111.741 130.838 105.606 130.454 105.464C130.07 105.322 122.738 103.877 122.738 103.877" stroke="#006DAE" stroke-miterlimit="10"/>
<path d="M495.231 202.988L398.122 193.792L356.175 189.797L322.228 183.208L297.943 177.059L287.059 171.632L272.195 165.54L259.989 161.289L250.142 159.348L241.232 156.146L228.287 151.81L215.513 148.268L193.459 140.588L192.351 140.078L170.013 129.112L155.292 120.625L153.701 119.519L142.717 111.967C142.717 111.967 129.729 105.648 129.374 105.521C129.018 105.393 121.771 103.735 121.771 103.735" stroke="#006DAE" stroke-width="0.3" stroke-miterlimit="10"/>
<path d="M497.818 205.225L400.24 195.548L358.08 191.34L323.877 184.822L299.45 178.716L288.338 173.473L273.262 167.565L260.956 163.413L251.038 161.458L240.935 157.944L227.706 153.453L214.69 149.712L192.139 141.764L190.974 141.254L168.806 129.649L154.227 120.922L152.65 119.802L141.581 112.179C141.581 112.179 128.65 105.662 128.309 105.549C127.982 105.435 120.82 103.565 120.82 103.565" stroke="#006DAE" stroke-width="0.3" stroke-miterlimit="10"/>
<path d="M500.404 207.45L402.343 197.291L359.969 192.87L325.511 186.424L300.928 180.359L289.589 175.315L274.313 169.591L261.908 165.553L251.919 163.57L240.608 159.744L227.109 155.083L213.865 151.13L190.817 142.898L189.609 142.373L167.627 130.132L153.176 121.205L151.598 120.058L140.458 112.364C140.458 112.364 127.57 105.662 127.271 105.549C126.973 105.436 119.896 103.367 119.896 103.367" stroke="#006DAE" stroke-width="0.3" stroke-miterlimit="10"/>
<path d="M502.99 209.688L404.445 199.034L361.859 194.4L327.145 188.039L302.42 182.031L290.867 177.185L275.35 171.645L262.846 167.707L252.785 165.695L240.281 161.571L226.511 156.74L213.026 152.574L189.495 144.059L188.245 143.52L166.419 130.655L152.109 121.502L150.532 120.34L139.306 112.562C139.306 112.562 126.475 105.676 126.191 105.577C125.921 105.477 118.93 103.21 118.93 103.21" stroke="#006DAE" stroke-width="0.3" stroke-miterlimit="10"/>
<path d="M505.59 211.928L406.576 200.791L363.777 195.96L328.807 189.669L303.94 183.704L292.16 179.042L276.43 173.672L263.812 169.847L253.694 167.806L239.982 163.371L225.943 158.37L212.216 153.992L188.188 145.207L186.895 144.655L165.239 131.152L151.058 121.815L149.48 120.639L138.184 112.789C138.184 112.789 125.395 105.719 125.153 105.62C124.912 105.535 118.006 103.055 118.006 103.055" stroke="#006DAE" stroke-width="0.3" stroke-miterlimit="10"/>
<path d="M508.177 214.151L408.68 202.519L365.667 197.475L330.427 191.255L305.418 185.332L293.411 180.869L277.468 175.683L264.75 171.971L254.562 169.902L239.641 165.156L225.332 159.984L211.378 155.394L186.852 146.326L185.517 145.759L164.046 131.633L149.992 122.083L148.415 120.879L137.033 112.958C137.033 112.958 124.287 105.69 124.074 105.619C123.846 105.534 117.04 102.856 117.04 102.856" stroke="#006DAE" stroke-width="0.3" stroke-miterlimit="10"/>
<path d="M510.763 216.391L410.783 204.276L367.557 199.02L332.062 192.885L306.896 187.019L294.676 182.754L278.519 177.753L265.702 174.14L255.443 172.043L239.329 166.999L224.75 161.657L210.554 156.854L185.531 147.517L184.153 146.936L162.852 132.158L148.941 122.41L147.364 121.191L135.911 113.186C135.911 113.186 123.222 105.733 123.023 105.662C122.824 105.592 116.103 102.701 116.103 102.701" stroke="#006DAE" stroke-width="0.3" stroke-miterlimit="10"/>
<path d="M513.348 218.629L412.886 206.019L369.447 200.55L333.695 194.486L308.388 188.662L295.94 184.582L279.57 179.764L266.654 176.265L256.323 174.139L239.002 168.784L224.153 163.272L209.73 158.256L184.209 148.636L182.788 148.041L161.658 132.64L147.875 122.679L146.312 121.446L134.773 113.37C134.773 113.37 122.127 105.733 121.97 105.677C121.8 105.62 115.164 102.517 115.164 102.517" stroke="#006DAE" stroke-width="0.3" stroke-miterlimit="10"/>
<path d="M515.935 220.868L414.989 207.776L371.337 202.108L335.33 196.129L309.88 190.348L297.205 186.466L280.623 181.819L267.607 178.418L257.205 176.279L238.69 170.611L223.571 164.93L208.906 159.701L182.888 149.797L181.425 149.188L160.465 133.149L146.824 122.976L145.261 121.715L133.638 113.568C133.638 113.568 121.048 105.733 120.906 105.69C120.764 105.648 114.213 102.332 114.213 102.332" stroke="#006DAE" stroke-width="0.3" stroke-miterlimit="10"/>
<path d="M518.521 223.092L417.106 209.519L373.241 203.639L336.978 197.73L311.386 192.006L298.484 188.308L281.674 183.845L268.558 180.558L258.086 178.39L238.363 172.411L222.973 166.559L208.082 161.133L181.566 150.959L180.046 150.336L159.257 133.659L145.758 123.274L144.195 121.999L132.5 113.767C132.5 113.767 119.953 105.747 119.854 105.705C119.74 105.662 113.274 102.375 113.274 102.375" stroke="#006DAE" stroke-width="0.3" stroke-miterlimit="10"/>
<path d="M521.107 225.331L419.209 211.261L375.13 205.169L338.597 199.331L312.849 193.65L299.734 190.15L282.71 185.871L269.481 182.683L258.952 180.487L238.035 174.21L222.376 168.189L207.243 162.55L180.244 152.093L178.681 151.456L158.063 134.156L144.692 123.558L143.128 122.268L131.349 113.965C131.349 113.965 118.858 105.762 118.773 105.734C118.688 105.705 112.308 102.206 112.308 102.206" stroke="#006DAE" stroke-width="0.3" stroke-miterlimit="10"/>
<path d="M523.693 227.57L421.327 213.019L377.035 206.713L340.246 200.961L314.356 195.322L301.013 192.02L283.777 187.926L270.448 184.851L259.847 182.627L237.723 176.038L221.78 169.846L206.419 163.995L178.923 153.269L177.317 152.617L156.87 134.665L143.64 123.855L142.077 122.537L130.226 114.163C130.226 114.163 117.779 105.775 117.722 105.747C117.665 105.733 111.37 102.021 111.37 102.021" stroke="#006DAE" stroke-width="0.3" stroke-miterlimit="10"/>
<path d="M526.28 229.809L423.43 214.776L378.926 208.272L341.881 202.591L315.849 196.994L302.278 193.877L284.829 189.952L271.401 186.977L260.729 184.724L237.411 177.824L221.198 171.462L205.596 165.412L177.602 154.403L175.954 153.751L155.677 135.176L142.575 124.153L141.012 122.821L129.076 114.362C129.076 114.362 116.685 105.776 116.657 105.776C116.629 105.762 110.419 101.851 110.419 101.851" stroke="#006DAE" stroke-width="0.3" stroke-miterlimit="10"/>
<path d="M528.866 232.033L343.514 204.191L261.61 186.849L237.084 179.637L174.589 154.87L154.483 135.671L139.96 123.09L109.48 101.454" stroke="#006DAE" stroke-width="0.3" stroke-miterlimit="10"/>
<path d="M-23.4521 31.4043L30.6726 62.9863L61.4792 71.8276L78.8293 83.1484L88.9892 88.5041L109.494 101.851L139.974 123.501L154.496 136.083L174.603 155.281L237.097 180.048L261.623 187.246L343.528 204.588L528.879 232.444" stroke="#006DAE" stroke-miterlimit="10"/>
<path d="M526.463 233.96L342.973 205.509L337.176 204.319L261.737 188.648L250.852 185.673L237.41 181.777L214.631 173.332L174.944 158.016L169.885 154.034L153.16 139.979L139.249 128.219L135.455 125.498L111.199 107.618L92.4991 94.7949L82.3676 88.9149L64.5628 76.7581L33.6568 66.1741L16.7898 56.4402L-24.333 34.2236" stroke="#006DAE" stroke-width="0.3" stroke-miterlimit="10"/>
<path d="M524.048 235.462L342.419 206.416L336.622 205.283L261.836 190.051L251.051 187.317L237.722 183.519L214.844 175.613L175.299 160.75L169.757 157.151L151.81 143.889L138.538 132.951L134.972 130.387L112.904 113.37L95.9944 101.086L85.8913 94.6814L67.6603 81.6887L36.6405 69.376L18.9352 59.2596L-25.2002 37.0288" stroke="#006DAE" stroke-width="0.3" stroke-miterlimit="10"/>
<path d="M521.646 236.978L341.851 207.337L336.067 206.232L261.935 191.44L251.25 188.96L238.021 185.248L215.058 177.894L175.64 163.471L169.629 160.283L150.475 147.786L137.814 137.669L134.503 135.261L114.609 119.123L99.4901 107.377L89.4154 100.462L70.7439 86.6196L39.6104 72.5784L21.0952 62.0794L-26.0811 39.8345" stroke="#006DAE" stroke-width="0.3" stroke-miterlimit="10"/>
<path d="M519.231 238.494L341.297 208.258L335.514 207.195L262.035 192.843L251.449 190.604L238.334 186.991L215.257 180.176L175.996 166.205L169.488 163.4L149.125 151.697L137.09 142.388L134.034 140.135L116.315 124.875L102.986 113.668L92.9542 106.229L73.8421 91.5505L42.595 75.7807L23.2414 64.8992L-26.9473 42.6401" stroke="#006DAE" stroke-width="0.3" stroke-miterlimit="10"/>
<path d="M516.815 239.997L334.959 208.16L251.648 192.248L215.47 182.443L169.359 166.532L147.789 155.594L133.551 145.024L106.496 119.959L76.9253 96.4813L25.4009 67.7045L-27.8145 45.4453" stroke="#006DAE" stroke-width="0.3" stroke-miterlimit="10"/>
<path d="M516.815 239.997L334.959 208.16L251.648 192.248L215.47 182.443L169.359 166.532L147.789 155.594L133.551 145.024L106.496 119.959L76.9253 96.4813L25.4009 67.7045L-27.8145 45.4453" stroke="#006DAE" stroke-width="0.3" stroke-miterlimit="10"/>
<path d="M517.739 243.793L335.087 212.013L313.446 207.918L251.392 196.158L248.394 195.365L214.987 186.552L197.708 180.785L168.621 170.796L146.809 159.971L127.37 147.999L98.922 122.509L69.4937 98.805L18.5378 69.5466L-35.1465 47.3584" stroke="#006DAE" stroke-width="0.3" stroke-miterlimit="10"/>
<path d="M518.678 247.576L335.216 215.881L313.475 211.814L251.137 200.069L248.111 199.275L214.519 190.675L197.098 185.036L167.868 175.061L145.843 164.335L121.189 150.988L91.3632 125.059L62.0486 101.128L11.6751 71.3883L-42.4639 49.2568" stroke="#006DAE" stroke-width="0.3" stroke-miterlimit="10"/>
<path d="M519.615 251.374L335.343 219.735L313.503 215.697L250.881 203.98L247.811 203.2L214.035 194.784L196.5 189.301L167.129 179.312L144.862 168.714L115.008 153.964L83.8031 127.596L54.6022 103.453L4.82564 73.2306L-49.7822 51.1558" stroke="#006DAE" stroke-width="0.3" stroke-miterlimit="10"/>
<path d="M520.538 255.157L335.471 223.603L313.531 219.579L250.61 207.89L247.527 207.125L213.566 198.893L195.889 193.551L166.39 183.576L143.896 173.077L108.826 156.953L76.2432 130.146L47.1702 105.79L-2.03801 75.0724L-57.1006 53.0542" stroke="#006DAE" stroke-width="0.3" stroke-miterlimit="10"/>
<path d="M521.476 258.955L335.599 227.472L313.56 223.462L250.355 211.801L247.243 211.05L213.083 203.002L195.292 197.816L165.651 187.842L142.915 177.456L102.645 159.929L68.6839 132.683L39.7245 108.114L-8.90109 76.9147L-64.4326 54.9531" stroke="#006DAE" stroke-width="0.3" stroke-miterlimit="10"/>
<path d="M522.414 262.737L335.727 231.325L313.588 227.343L250.099 215.725L246.958 214.974L212.614 207.111L194.681 202.066L164.897 192.106L141.949 181.819L96.4635 162.918L61.1098 135.233L32.2783 110.438L-15.7647 78.7422L-71.751 56.8516" stroke="#006DAE" stroke-width="0.3" stroke-miterlimit="10"/>
<path d="M523.338 266.534L335.855 235.193L313.617 231.226L249.844 219.636L246.661 218.885L212.145 211.22L194.085 206.331L164.159 196.371L140.969 186.198L90.2829 165.894L53.5508 137.783L24.8472 112.761L-22.6132 80.584L-79.0684 58.75" stroke="#006DAE" stroke-width="0.3" stroke-miterlimit="10"/>
<path d="M524.275 270.317L335.983 239.047L313.645 235.108L249.573 223.547L246.376 222.81L211.662 215.329L193.473 210.582L163.42 200.622L140.002 190.562L84.1013 168.884L45.9909 140.32L17.401 115.099L-29.4769 82.4262L-86.3867 60.6489" stroke="#006DAE" stroke-width="0.3" stroke-miterlimit="10"/>
<path d="M525.199 274.115L336.11 242.915L313.673 238.99L249.317 227.457L246.092 226.734L211.193 219.438L192.876 214.847L162.681 204.886L139.021 194.94L77.9197 171.859L38.4309 142.87L9.9547 117.422L-36.3405 84.2676L-93.7051 62.5469" stroke="#006DAE" stroke-width="0.3" stroke-miterlimit="10"/>
<path d="M526.138 277.898L336.239 246.77L313.702 242.887L249.063 231.368L245.809 230.66L210.711 223.547L192.266 219.098L161.943 209.152L138.056 199.304L71.7396 174.849L30.8583 145.421L2.5242 119.747L-43.1884 86.1103L-101.036 64.4463" stroke="#006DAE" stroke-width="0.3" stroke-miterlimit="10"/>
<path d="M527.075 281.695L336.367 250.637L313.731 246.769L248.806 235.278L245.524 234.57L210.241 227.67L191.669 223.362L161.189 213.416L137.076 203.668L65.5581 177.824L23.2984 147.956L-4.92205 122.07L-50.0521 87.9378L-108.354 66.3447" stroke="#006DAE" stroke-width="0.3" stroke-miterlimit="10"/>
<path d="M527.998 285.478L336.494 254.505L313.759 250.651L248.55 239.203L245.225 238.494L209.758 231.778L191.058 227.613L160.45 217.666L136.095 208.046L59.3765 180.813L15.7385 150.507L-12.3683 124.408L-56.9157 89.7796L-115.673 68.2432" stroke="#006DAE" stroke-width="0.3" stroke-miterlimit="10"/>
<path d="M528.937 289.275L336.623 258.359L313.788 254.534L248.281 243.114L244.942 242.419L209.289 235.888L190.447 231.878L159.712 221.931L135.129 212.41L53.1959 183.789L8.17953 153.043L-19.7994 126.732L-63.7642 91.6214L-122.99 70.1416" stroke="#006DAE" stroke-width="0.3" stroke-miterlimit="10"/>
<path d="M529.874 293.059L336.75 262.227L313.815 258.416L248.024 247.024L244.657 246.344L208.806 239.997L189.85 236.129L158.972 226.196L134.148 216.788L47.0138 186.779L0.619167 155.594L-27.2461 129.056L-70.6283 93.4636L-130.323 72.0547" stroke="#006DAE" stroke-width="0.3" stroke-miterlimit="10"/>
<path d="M530.798 296.855L336.878 266.081L313.844 262.298L247.769 250.935L244.373 250.269L208.337 244.105L189.239 240.393L158.22 230.461L133.182 221.152L40.8332 189.754L-6.954 158.143L-34.6913 131.379L-77.491 95.305L-137.641 73.9526" stroke="#006DAE" stroke-width="0.3" stroke-miterlimit="10"/>
<path d="M531.736 300.639L337.02 269.949L313.872 266.18L247.513 254.845L244.074 254.18L207.854 248.215L188.642 244.644L157.48 234.726L132.201 225.53L34.6517 192.744L-14.5139 160.68L-42.1234 133.717L-84.3404 97.1339L-144.959 75.8525" stroke="#006DAE" stroke-width="0.3" stroke-miterlimit="10"/>
<path d="M532.659 304.436L337.147 273.803L313.9 270.063L247.243 258.756L243.79 258.104L207.384 252.323L188.031 248.909L156.741 238.976L131.235 229.894L28.4701 195.719L-22.0738 163.23L-49.5696 136.041L-91.204 98.9753L-152.277 77.7505" stroke="#006DAE" stroke-width="0.3" stroke-miterlimit="10"/>
<path d="M533.597 308.218L337.276 277.671L313.93 273.944L246.988 262.68L243.506 262.028L206.902 256.432L187.435 253.159L156.003 243.241L130.255 234.272L22.2895 198.708L-29.6328 165.78L-57.0149 138.364L-98.0667 100.817L-159.595 79.6489" stroke="#006DAE" stroke-width="0.3" stroke-miterlimit="10"/>
<path d="M534.535 312.016L337.404 281.525L313.958 277.841L246.732 266.591L243.222 265.954L206.433 260.555L186.824 257.424L155.264 247.506L129.289 238.636L16.1085 201.684L-37.1922 168.317L-64.4464 140.688L-104.916 102.659L-166.927 81.5479" stroke="#006DAE" stroke-width="0.3" stroke-miterlimit="10"/>
<path d="M535.458 315.799L337.532 285.393L313.986 281.723L246.476 270.501L242.923 269.878L205.95 264.664L186.227 261.674L154.511 251.77L128.308 243L9.92685 204.674L-44.7663 170.867L-71.8926 143.012L-111.779 104.501L-174.245 83.4463" stroke="#006DAE" stroke-width="0.3" stroke-miterlimit="10"/>
<path d="M536.397 319.596L337.66 289.261L314.015 285.606L246.221 274.412L242.64 273.789L205.481 268.773L185.616 265.939L153.772 256.021L127.342 247.378L3.74625 207.649L-52.3252 173.404L-79.3379 145.35L-118.642 106.329L-181.562 85.3452" stroke="#006DAE" stroke-width="0.3" stroke-miterlimit="10"/>
<path d="M537.32 323.379L337.788 293.115L314.043 289.488L245.95 278.323L242.355 277.714L205.012 272.882L185.005 270.19L153.033 260.286L126.361 251.742L-2.43534 210.639L-59.8852 175.954L-86.7699 147.673L-125.491 108.171L-188.881 87.2437" stroke="#006DAE" stroke-width="0.3" stroke-miterlimit="10"/>
<path d="M538.258 327.176L337.916 296.982L314.072 293.369L245.695 282.233L242.071 281.638L204.529 276.99L184.408 274.454L152.294 264.55L125.381 256.12L-8.61637 213.614L-67.4446 178.504L-94.2156 149.997L-132.354 110.013L-196.213 89.1421" stroke="#006DAE" stroke-width="0.3" stroke-miterlimit="10"/>
<path d="M539.196 330.959L314.1 297.252L241.787 285.563L183.797 278.705L124.415 260.484L-14.7979 216.604L-75.0045 181.041L-139.218 111.855L-203.531 91.041" stroke="#006DAE" stroke-width="0.3" stroke-miterlimit="10"/>
<path d="M509.014 178.348L406.491 177.172L399.968 177.059L392.537 176.648L382.561 175.883L374.092 175.146L369.716 174.423L362.341 172.837L358.988 170.81L347.861 165.511L343.343 163.145L339.009 159.702L334.021 155.196L327.57 148.821L321.758 144.386L316.273 140.461L305.119 135.374L288.081 127.1L282.852 124.904L275.974 121.999L273.232 120.441L270.248 119.506L265.516 115.921L257.502 110.763L253.836 104.926L250.042 102.305L249.417 98.6633C249.417 98.6633 248.294 95.6029 248.194 95.362C248.095 95.1212 246.205 92.5283 246.205 92.5283L242.056 90.4455L235.235 88.8019L230.063 87.9518L224.464 86.3649L219.534 84.8205L215.569 84.8347L213.58 86.124L206.731 85.5148L201.885 85.8973L189.295 88.6177L185.43 90.488L176.166 92.0607L169.8 93.4493L161.814 92.2024L153.927 93.5343L141.863 97.3031L131.362 100.59L124.911 102.801L122.055 104.033L109.508 101.965L94.3318 92.0891L85.1808 86.4924L78.8432 83.1486L61.479 71.842L30.6724 62.9865L-14.415 35.1025" stroke="#006DAE" stroke-miterlimit="10"/>
<mask id="path-89-inside-1" fill="white">
<path fill-rule="evenodd" clip-rule="evenodd" d="M485.375 163.444C481.641 161.968 479 158.327 479 154.069C479 148.503 483.512 143.991 489.077 143.991C489.599 143.991 490.112 144.031 490.613 144.108C490.432 143.257 490.336 142.376 490.336 141.472C490.336 134.515 495.976 128.875 502.933 128.875C509.89 128.875 515.53 134.515 515.53 141.472C515.53 142.376 515.434 143.258 515.253 144.108C515.754 144.031 516.267 143.991 516.79 143.991C522.355 143.991 526.867 148.503 526.867 154.069C526.867 157.862 524.771 161.165 521.674 162.885C521.776 163.504 521.828 164.134 521.828 164.775C521.828 172.775 513.651 179.261 503.563 179.261C493.476 179.261 485.298 172.775 485.298 164.775C485.298 164.326 485.324 163.882 485.375 163.444Z"/>
</mask>
<path fill-rule="evenodd" clip-rule="evenodd" d="M485.375 163.444C481.641 161.968 479 158.327 479 154.069C479 148.503 483.512 143.991 489.077 143.991C489.599 143.991 490.112 144.031 490.613 144.108C490.432 143.257 490.336 142.376 490.336 141.472C490.336 134.515 495.976 128.875 502.933 128.875C509.89 128.875 515.53 134.515 515.53 141.472C515.53 142.376 515.434 143.258 515.253 144.108C515.754 144.031 516.267 143.991 516.79 143.991C522.355 143.991 526.867 148.503 526.867 154.069C526.867 157.862 524.771 161.165 521.674 162.885C521.776 163.504 521.828 164.134 521.828 164.775C521.828 172.775 513.651 179.261 503.563 179.261C493.476 179.261 485.298 172.775 485.298 164.775C485.298 164.326 485.324 163.882 485.375 163.444Z" fill="white"/>
<path d="M485.375 163.444L486.368 163.558L486.456 162.796L485.742 162.514L485.375 163.444ZM490.613 144.108L490.462 145.096L491.892 145.315L491.591 143.899L490.613 144.108ZM515.253 144.108L514.275 143.899L513.974 145.315L515.404 145.096L515.253 144.108ZM521.674 162.885L521.189 162.011L520.573 162.352L520.688 163.047L521.674 162.885ZM485.742 162.514C482.377 161.184 480 157.903 480 154.069H478C478 158.751 480.905 162.752 485.007 164.374L485.742 162.514ZM480 154.069C480 149.055 484.064 144.991 489.077 144.991V142.991C482.959 142.991 478 147.951 478 154.069H480ZM489.077 144.991C489.549 144.991 490.011 145.027 490.462 145.096L490.764 143.119C490.213 143.035 489.65 142.991 489.077 142.991V144.991ZM491.591 143.899C491.424 143.117 491.336 142.305 491.336 141.472H489.336C489.336 142.446 489.439 143.398 489.635 144.316L491.591 143.899ZM491.336 141.472C491.336 135.067 496.528 129.875 502.933 129.875V127.875C495.424 127.875 489.336 133.962 489.336 141.472H491.336ZM502.933 129.875C509.338 129.875 514.53 135.067 514.53 141.472H516.53C516.53 133.962 510.442 127.875 502.933 127.875V129.875ZM514.53 141.472C514.53 142.305 514.442 143.117 514.275 143.899L516.231 144.316C516.427 143.398 516.53 142.446 516.53 141.472H514.53ZM515.404 145.096C515.856 145.027 516.318 144.991 516.79 144.991V142.991C516.216 142.991 515.653 143.035 515.102 143.119L515.404 145.096ZM516.79 144.991C521.803 144.991 525.867 149.055 525.867 154.069H527.867C527.867 147.951 522.907 142.991 516.79 142.991V144.991ZM525.867 154.069C525.867 157.484 523.981 160.46 521.189 162.011L522.16 163.759C525.561 161.871 527.867 158.239 527.867 154.069H525.867ZM520.688 163.047C520.781 163.612 520.828 164.189 520.828 164.775H522.828C522.828 164.08 522.772 163.395 522.661 162.723L520.688 163.047ZM520.828 164.775C520.828 172.019 513.327 178.261 503.563 178.261V180.261C513.975 180.261 522.828 173.531 522.828 164.775H520.828ZM503.563 178.261C493.8 178.261 486.298 172.019 486.298 164.775H484.298C484.298 173.531 493.152 180.261 503.563 180.261V178.261ZM486.298 164.775C486.298 164.364 486.322 163.959 486.368 163.558L484.381 163.33C484.326 163.806 484.298 164.288 484.298 164.775H486.298Z" fill="#006DAE" mask="url(#path-89-inside-1)"/>
<line x1="502.673" y1="153.809" x2="502.673" y2="203.454" stroke="#006DAE" stroke-width="2" stroke-linecap="round"/>
<line x1="493.565" y1="157.847" x2="501.675" y2="165.958" stroke="#006DAE" stroke-linecap="round"/>
<line x1="510.354" y1="167.358" x2="503.628" y2="171.842" stroke="#006DAE" stroke-linecap="round"/>
<path d="M275 205.5L330.258 178.67L338.791 176.566L348.701 178.67L360.308 176.566L370.951 172.586L662.639 187.178H672.549L684.615 186.309L695.946 183.336L710.581 180.911H718.38L728.061 179.173L743.43 177.938L760.679 173.684L774.626 172.906L786.325 170.71L797.611 167.965L814.081 159.869L840.093 154.882L853.122 153.784H870.097L890.329 151.863L909.368 144.91L936.803 123.867L962.081 122.495L996.856 119.704L1029.02 115.13L1047.92 112.66L1073.2 94.5903L1104.39 88.5519C1104.39 88.5519 1175.55 52.9165 1175.32 53.2367C1175.09 53.6027 1212.89 32.377 1212.89 32.377L1232.76 36.4025L1235.23 38.5983L1250.97 38.6898L1276.75 43.7217L1345.8 70.4826L1375.53 64.2155L1400.71 74.2337V246.51H322L275 205.5Z" fill="white"/>
<path d="M271 208L330.258 178.67L338.791 176.565L348.701 178.67L360.308 176.565L370.951 172.586L662.639 187.178H672.549L684.615 186.309L695.946 183.336L710.581 180.911H718.38L728.061 179.173L743.43 177.938L760.679 173.683L774.626 172.906L786.325 170.71L797.611 167.965L814.081 159.868L840.093 154.882L853.122 153.784H870.097L890.329 151.863L909.368 144.91L936.803 123.867L962.081 122.495L996.856 119.704L1029.02 115.13L1047.92 112.66L1073.2 94.5902L1104.39 88.5519C1104.39 88.5519 1175.55 52.9165 1175.32 53.2367C1175.09 53.6027 1212.89 32.377 1212.89 32.377L1232.76 36.4025L1235.23 38.5983L1250.97 38.6898L1276.75 43.7217L1345.8 70.4826L1375.53 64.2155L1400.71 74.2337" stroke="#006DAE" stroke-width="0.3" stroke-miterlimit="10"/>
<path d="M264.5 213.5L332.919 181.369L341.361 179.356L351.224 181.323L362.739 179.31L373.337 175.468L571.619 184.434L608.917 186.355L619.056 186.813L627.177 187.133L637.866 187.545L649.152 187.865L661.355 188.368L668.512 188.734L678.33 188.688L690.579 187.865L702.37 185.029L716.867 182.833L724.941 182.741L734.759 181.049L750.128 179.631L767.653 175.742L771.782 175.514L781.829 175.056L793.849 173.181L805.273 170.756L810.457 168.515L822.064 163.346L825.734 162.705L848.397 158.268L852.159 157.902L861.564 157.307L872.483 157.399L878.722 157.444L899.229 155.889L918.544 149.531L924.829 145.276L937.766 136.585L946.942 130.089L955.705 129.449L962.403 128.991L972.404 128.534L989.011 127.39C989.011 127.39 1006.95 126.109 1007.45 125.88C1008 125.606 1038.79 121.352 1039.94 121.306C1040.72 121.306 1053.47 119.705 1053.47 119.705C1053.47 119.705 1058.75 119.019 1059.07 118.973C1059.94 118.882 1079.62 105.753 1079.62 105.753L1083.61 103.145L1085.17 102.185L1100.36 99.8059L1106.09 99.0283L1116.69 97.1527C1116.69 97.1527 1182.8 65.0398 1182.57 65.3601C1182.34 65.6803 1217.48 46.5132 1217.48 46.5132L1235.88 50.2185L1238.13 52.1855L1252.71 52.3228L1276.62 56.9888L1340.71 81.5995L1368.33 76.0186L1378.1 80.1814L1388.74 83.8867L1398.19 87.3176" stroke="#006DAE" stroke-width="0.3" stroke-miterlimit="10"/>
<path d="M280.5 209L335.626 184.021L344.022 182.1L353.839 183.93L365.309 182.008L375.906 178.349L576.345 186.491L614.056 188.504L624.378 188.87L632.636 189.144L643.417 189.419L654.795 189.51L667.182 189.922L674.614 190.288L684.34 190.197L696.819 189.465L709.114 186.766L723.473 184.753L731.869 184.616L741.779 183.015L757.147 181.368L774.902 177.845L779.031 177.662L789.307 177.297L801.603 175.741L813.118 173.591L818.394 171.578L830.23 166.821L833.992 166.181L856.885 161.606L860.693 161.194L870.189 160.737L881.246 160.966L887.577 161.057L908.359 159.822L927.949 154.058L934.418 150.216L947.768 142.485L957.219 136.355L966.027 135.531L972.771 135.028L982.864 134.617L999.609 133.61C999.609 133.61 1017.23 132.512 1018.19 132.009C1019.29 131.46 1048.65 127.526 1050.99 127.48C1052.55 127.435 1064.66 126.016 1064.66 126.016C1064.66 126.016 1069.66 125.376 1070.31 125.33C1072.05 125.147 1091.5 113.116 1091.5 113.116L1095.63 110.646L1097.19 109.823L1112.56 107.947L1118.25 107.536L1128.98 105.751C1128.98 105.751 1190 77.1609 1189.82 77.4354C1189.63 77.7098 1222.07 60.647 1222.07 60.647L1239 64.0778L1241.06 65.8619L1254.5 66.0449L1276.53 70.3449L1335.62 92.7599L1361.08 87.8652L1372.23 92.8514L1384.57 96.7397L1395.58 100.445" stroke="#006DAE" stroke-width="0.3" stroke-miterlimit="10"/>
<path d="M289.499 208L338.24 186.721L346.59 184.891L356.362 186.629L367.74 184.754L378.291 181.277L580.932 188.596L619.056 190.655L629.516 190.975L637.911 191.158L648.739 191.341L660.254 191.249L672.824 191.524L680.532 191.936L690.166 191.753L702.828 191.066L715.582 188.459L729.758 186.675L738.429 186.446L748.476 184.891L763.845 183.061L781.875 179.95L786.05 179.767L796.51 179.539L809.08 178.304L820.733 176.474L826.1 174.735L838.166 170.39L842.02 169.795L865.142 165.037L868.95 164.534L878.584 164.26L889.778 164.58L896.201 164.717L917.259 163.848L937.078 158.679L943.776 155.248L957.677 148.249L967.403 142.485L976.303 141.524L983.047 140.93L993.232 140.61L1010.11 139.74C1010.11 139.74 1027.41 138.825 1028.88 138.094C1030.53 137.27 1058.52 133.656 1062 133.565C1064.34 133.519 1075.86 132.238 1075.86 132.284C1075.86 132.284 1080.54 131.689 1081.55 131.598C1084.11 131.323 1103.38 120.436 1103.38 120.436L1107.6 118.149L1109.21 117.463L1124.72 116.09L1130.36 116.044L1141.23 114.398C1141.23 114.398 1197.2 89.3293 1197.02 89.558C1196.84 89.8325 1226.61 74.8281 1226.61 74.8281L1242.12 77.9388L1244 79.5399L1256.25 79.7686L1276.39 83.7027L1330.52 103.968L1353.87 99.7592L1366.44 105.569L1380.44 109.594L1393.01 113.574" stroke="#006DAE" stroke-width="0.3" stroke-miterlimit="10"/>
<path d="M297.5 206L340.947 189.419L349.251 187.681L358.931 189.282L370.263 187.498L380.769 184.158L585.612 190.654L624.149 192.804L634.792 193.079L643.325 193.216L654.244 193.262L665.851 192.941L678.559 193.124L686.542 193.536L696.084 193.307L708.976 192.667L722.189 190.197L736.227 188.641L745.219 188.367L755.358 186.903L770.727 184.845L788.986 182.1L793.161 181.963L803.85 181.825L816.742 180.91L828.486 179.401L833.946 177.891L846.241 173.957L850.186 173.408L873.538 168.514L877.346 167.965L887.072 167.827L898.404 168.285L904.872 168.468L926.205 167.919L946.3 163.344L953.181 160.325L967.587 154.195L977.542 148.797L986.488 147.654L993.278 146.968L1003.55 146.693L1020.58 146.007C1020.58 146.007 1037.5 145.275 1039.48 144.314C1041.68 143.217 1068.29 139.923 1072.92 139.786C1076.04 139.694 1086.96 138.596 1086.96 138.642C1086.96 138.642 1091.36 138.093 1092.65 137.956C1096.09 137.59 1115.13 127.8 1115.13 127.8L1119.49 125.65L1121.14 125.102L1136.83 124.232L1142.47 124.507L1153.44 122.997C1153.44 122.997 1204.31 101.406 1204.18 101.634C1204.04 101.863 1231.11 88.9629 1231.11 88.9629L1245.14 91.7991L1246.8 93.2172L1257.9 93.4917L1276.2 97.0598L1325.38 115.129L1346.63 111.607L1360.57 118.24L1376.26 122.448L1390.39 126.748" stroke="#006DAE" stroke-width="0.3" stroke-miterlimit="10"/>
<path d="M304 205.5L343.609 192.074L351.867 190.381L361.501 191.891L372.741 190.198L383.247 187.042L590.245 192.714L629.195 194.956L639.976 195.184L648.647 195.23L659.612 195.139L671.357 194.59L684.248 194.681L692.506 195.139L701.957 194.864L715.032 194.269L728.703 191.936L742.604 190.564L751.871 190.198L762.148 188.78L777.517 186.538L796.005 184.16L800.226 184.022L811.099 183.977L824.266 183.336L836.148 182.101L841.653 180.866L854.178 177.344L858.169 176.795L881.796 171.763L885.604 171.168L895.468 171.214L906.937 171.763L913.497 172.037L935.106 171.854L955.475 167.875L962.586 165.267L977.45 159.961L987.681 154.929L996.673 153.648L1003.46 152.87L1013.88 152.687L1031.04 152.138C1031.04 152.138 1047.64 151.589 1050.07 150.354C1052.78 148.982 1078.06 146.008 1083.84 145.826C1087.74 145.734 1098.06 144.819 1098.02 144.819C1098.02 144.819 1102.15 144.316 1103.75 144.133C1108.06 143.676 1126.87 134.984 1126.87 134.984L1131.37 133.017L1133.07 132.559L1148.94 132.194L1154.54 132.834L1165.64 131.462C1165.64 131.462 1211.47 113.392 1211.33 113.621C1211.2 113.804 1235.6 103.008 1235.6 103.008L1248.17 105.57L1249.64 106.805L1259.6 107.125L1276.02 110.327L1320.25 126.247L1339.38 123.411L1354.75 130.913L1372.13 135.258L1387.82 139.833" stroke="#006DAE" stroke-width="0.3" stroke-miterlimit="10"/>
<path d="M306 205.5L346.269 194.772L354.481 193.171L364.069 194.543L375.263 192.896L385.723 189.923L594.924 194.772L634.287 197.059L645.206 197.242H654.014L665.071 197.059L676.907 196.282H689.982L698.515 196.739L707.874 196.419L721.179 195.916L735.309 193.674L749.026 192.53L758.569 192.119L768.937 190.792L784.306 188.322L803.07 186.309L807.291 186.172L818.393 186.218L831.881 185.897L843.855 184.983L849.452 183.976L862.206 180.82L866.289 180.317L890.145 175.147L893.953 174.507L903.908 174.736L915.515 175.422L922.122 175.742L944.005 175.879L964.65 172.494L971.945 170.299L987.313 165.861L997.773 161.195L1006.81 159.731L1013.65 158.908L1024.15 158.771L1041.45 158.359C1041.45 158.359 1057.74 157.993 1060.67 156.529C1063.93 154.883 1087.83 152.229 1094.76 152.001C1099.44 151.863 1109.12 151.131 1109.12 151.131C1109.12 151.131 1112.97 150.674 1114.9 150.491C1120.08 149.942 1138.66 142.348 1138.66 142.348L1143.3 140.519L1145.04 140.198L1161.1 140.381L1166.65 141.388L1177.89 140.107C1177.89 140.107 1218.63 125.56 1218.54 125.743C1218.44 125.88 1240.19 117.143 1240.19 117.143L1251.34 119.385L1252.62 120.391L1261.43 120.757L1275.97 123.593L1315.24 137.317L1332.22 135.167L1348.96 143.492L1368.05 148.021L1385.3 152.915" stroke="#006DAE" stroke-width="0.3" stroke-miterlimit="10"/>
<path d="M314.5 205L348.929 197.47L357.049 195.961L366.592 197.241L377.74 195.686L388.154 192.85L599.557 196.875L639.287 199.254L650.389 199.346L659.335 199.3L670.484 198.98L682.458 197.973L695.716 197.882L704.525 198.385L713.792 197.973L727.28 197.516L741.869 195.412L755.448 194.497L765.312 193.994L775.818 192.713L791.187 190.06L810.18 188.413L814.447 188.321L825.733 188.504H839.496L851.607 187.91L857.296 187.178L870.28 184.433L874.454 183.975L898.54 178.623L902.394 177.937L912.441 178.303L924.185 179.081L930.884 179.447L953.088 179.95L974.008 177.205L981.532 175.421L997.406 171.807L1008.14 167.507L1017.27 165.906L1024.11 164.991L1034.7 164.946L1052.14 164.717C1052.14 164.717 1068.1 164.534 1071.5 162.841C1075.31 160.92 1097.79 158.587 1105.91 158.358C1111.37 158.221 1120.45 157.626 1120.45 157.626C1120.45 157.626 1124.03 157.215 1126.28 156.986C1132.33 156.346 1150.68 149.896 1150.68 149.896L1155.41 148.203L1157.2 148.02L1173.39 148.706L1178.9 150.033L1190.27 148.889C1190.27 148.889 1225.92 137.865 1225.88 138.002C1225.78 138.139 1244.87 131.46 1244.87 131.46L1254.55 133.427L1255.65 134.251L1263.27 134.663L1275.93 137.133L1310.24 148.706L1325.11 147.242L1343.28 156.391L1364.06 161.057L1382.87 166.226" stroke="#006DAE" stroke-width="0.3" stroke-miterlimit="10"/>
<path d="M323.499 205L351.544 200.17L359.619 198.752L369.069 199.895L380.126 198.431L390.54 195.778L604.099 198.935L644.242 201.405L655.482 201.451L664.566 201.313L675.76 200.856L687.825 199.621L701.222 199.392L710.259 199.895L719.435 199.438L733.152 199.026L748.2 197.059L761.642 196.373L771.781 195.824L782.379 194.589L797.748 191.707L817.016 190.472L821.329 190.38L832.844 190.655L846.928 190.975L859.132 190.655L864.912 190.197L878.125 187.864L882.391 187.407L906.752 181.917L910.606 181.14L920.791 181.689L932.627 182.604L939.371 183.015L961.851 183.839L983.046 181.689L990.754 180.316L1007.09 177.572L1018.1 173.638L1027.27 171.854L1034.15 170.847H1044.84L1062.41 170.756C1062.41 170.756 1078.06 170.756 1081.96 168.789C1086.32 166.593 1107.42 164.58 1116.69 164.306C1122.93 164.123 1131.41 163.711 1131.37 163.757C1131.37 163.802 1134.63 163.391 1137.24 163.116C1144.12 162.384 1162.29 157.032 1162.29 157.032L1167.15 155.522L1168.94 155.477L1185.32 156.666L1190.83 158.359L1202.34 157.352C1202.34 157.352 1232.94 149.85 1232.89 149.942C1232.85 150.033 1249.23 145.458 1249.23 145.458L1257.44 147.105L1258.31 147.746L1264.78 148.203L1275.56 150.307L1304.92 159.685L1317.68 158.908L1337.22 168.88L1359.7 173.729L1380.07 179.173" stroke="#006DAE" stroke-width="0.3" stroke-miterlimit="10"/>
<path d="M342.5 204.001L354.252 202.869L362.281 201.542L371.686 202.549L382.696 201.131L393.065 198.66L608.826 200.993L649.382 203.509H660.805L669.98 203.326L681.266 202.777L693.47 201.314L707.049 200.993L716.362 201.542L725.446 201.039L739.347 200.719L754.854 198.843L768.112 198.34L778.572 197.7L789.307 196.556L804.676 193.491L824.174 192.622L828.487 192.576L840.186 192.942L854.545 193.583H866.886L872.713 193.354L886.155 191.433L890.467 191.021L915.057 185.394L918.911 184.571L929.188 185.303L941.162 186.309L947.997 186.767L970.753 187.956L992.223 186.401L1000.16 185.44L1017 183.565L1028.24 179.996L1037.46 178.075L1044.34 177.023L1055.12 177.114L1072.83 177.206C1072.83 177.206 1088.11 177.389 1092.51 175.193C1097.42 172.723 1117.15 171.03 1127.56 170.71C1134.58 170.527 1142.43 170.253 1142.43 170.298C1142.43 170.344 1145.41 169.978 1148.3 169.658C1156.05 168.789 1173.99 164.58 1173.99 164.58L1178.99 163.208L1180.83 163.254L1197.39 164.946L1202.85 167.005L1214.5 166.09C1214.5 166.09 1240.01 162.11 1239.96 162.156C1239.92 162.202 1253.63 159.731 1253.63 159.731L1260.38 161.104L1261.06 161.561L1266.39 162.064L1275.33 163.803L1299.74 171.03L1310.38 170.939L1331.35 181.78L1355.53 186.767L1377.46 192.531" stroke="#006DAE" stroke-width="0.3" stroke-miterlimit="10"/>
<path d="M349.251 205.705L356.912 205.568L364.895 204.333L374.254 205.248L385.173 203.921L395.495 201.588L613.413 203.098L654.381 205.705L665.942 205.659L675.256 205.385L686.633 204.699L698.928 203.006L712.692 202.594L722.28 203.143L731.272 202.594L745.402 202.32L761.367 200.582L774.488 200.307L785.224 199.621L796.051 198.523L811.42 195.229L831.193 194.726L835.551 194.681L847.479 195.138L862.16 196.099L874.593 196.373L880.511 196.419L894.182 194.909L898.587 194.543L923.406 188.779L927.26 187.91L937.674 188.779L949.786 189.877L956.667 190.381L979.698 191.89L1001.44 190.929L1009.61 190.381L1026.95 189.328L1038.47 186.126L1047.78 184.022L1054.71 182.878L1065.58 183.061L1083.43 183.29C1083.43 183.29 1098.38 183.656 1103.29 181.231C1108.75 178.487 1127.1 177.114 1138.66 176.748C1146.46 176.52 1153.71 176.428 1153.71 176.474C1153.71 176.52 1156.42 176.2 1159.63 175.834C1168.25 174.873 1185.96 171.808 1185.96 171.808L1191.1 170.619L1192.98 170.802L1209.73 172.997L1215.14 175.376L1226.93 174.598C1226.93 174.598 1247.39 174.141 1247.35 174.187C1247.35 174.233 1258.36 173.775 1258.36 173.775L1263.68 174.827L1264.18 175.056L1268.36 175.605L1275.42 177.023L1294.83 182.055L1303.32 182.65L1325.66 194.315L1351.53 199.484L1375.02 205.522" stroke="#006DAE" stroke-width="0.3" stroke-miterlimit="10"/>
<path d="M352.004 208.404L359.574 208.221L367.51 207.032L376.824 207.81L387.697 206.575L397.973 204.425L618.093 205.111L659.474 207.81L671.219 207.718L680.669 207.398L692.093 206.575L704.48 204.653L718.381 204.15L728.244 204.745L737.144 204.15L751.458 203.921L767.882 202.32L780.82 202.275L791.83 201.497L802.795 200.49L818.164 197.014L842.525 196.877L854.636 197.471L869.592 198.752L888.173 199.621L906.57 198.157L935.518 191.296L958.273 193.583L988.553 196.007L1018.88 195.504L1036.72 195.321L1057.87 190.244L1064.8 189.008L1093.75 189.649C1093.75 189.649 1108.38 190.198 1113.75 187.499C1123.8 182.467 1164.68 182.787 1164.63 182.924C1164.54 183.062 1197.57 179.31 1197.57 179.31L1202.8 178.258L1221.61 181.277L1227.02 184.022L1238.95 183.382L1295.84 194.681L1319.6 207.169L1347.18 212.476L1372.23 218.789" stroke="white" stroke-width="0.3" stroke-miterlimit="10"/>
<path d="M270.5 208L330.258 178.67L338.791 176.565L348.701 178.67L360.308 176.565L370.951 172.586L662.64 187.178H672.549L684.615 186.309L695.947 183.336L710.581 180.911H718.381L728.061 179.173L743.43 177.938L760.68 173.683L774.626 172.906L786.325 170.71L797.611 167.965L814.081 159.868L840.093 154.882L853.122 153.784H870.097L890.329 151.863L909.368 144.91L936.803 123.867L962.081 122.495L996.856 119.704L1029.02 115.13L1047.92 112.66L1073.2 94.5902L1104.39 88.5519C1104.39 88.5519 1175.55 52.9165 1175.32 53.2367C1175.09 53.6027 1212.89 32.377 1212.89 32.377L1232.76 36.4025L1235.24 38.5983L1250.97 38.6898L1276.75 43.7217L1345.8 70.4826L1375.53 64.2155L1407 76.7954" stroke="#006DAE" stroke-miterlimit="10"/>
<mask id="path-108-inside-2" fill="white">
<path fill-rule="evenodd" clip-rule="evenodd" d="M516.322 144.481C510.862 142.323 507 136.998 507 130.771C507 122.632 513.598 116.034 521.737 116.034C522.5 116.034 523.25 116.092 523.982 116.204C523.718 114.961 523.578 113.671 523.578 112.349C523.578 102.175 531.826 93.9277 541.999 93.9277C552.173 93.9277 560.42 102.175 560.42 112.349C560.42 113.671 560.281 114.961 560.016 116.204C560.749 116.092 561.499 116.034 562.263 116.034C570.402 116.034 577 122.632 577 130.771C577 136.318 573.935 141.149 569.407 143.663C569.555 144.568 569.632 145.491 569.632 146.428C569.632 158.127 557.673 167.612 542.921 167.612C528.17 167.612 516.211 158.127 516.211 146.428C516.211 145.771 516.248 145.122 516.322 144.481Z"/>
</mask>
<path fill-rule="evenodd" clip-rule="evenodd" d="M516.322 144.481C510.862 142.323 507 136.998 507 130.771C507 122.632 513.598 116.034 521.737 116.034C522.5 116.034 523.25 116.092 523.982 116.204C523.718 114.961 523.578 113.671 523.578 112.349C523.578 102.175 531.826 93.9277 541.999 93.9277C552.173 93.9277 560.42 102.175 560.42 112.349C560.42 113.671 560.281 114.961 560.016 116.204C560.749 116.092 561.499 116.034 562.263 116.034C570.402 116.034 577 122.632 577 130.771C577 136.318 573.935 141.149 569.407 143.663C569.555 144.568 569.632 145.491 569.632 146.428C569.632 158.127 557.673 167.612 542.921 167.612C528.17 167.612 516.211 158.127 516.211 146.428C516.211 145.771 516.248 145.122 516.322 144.481Z" fill="white"/>
<path d="M516.322 144.481L517.316 144.595L517.403 143.833L516.69 143.551L516.322 144.481ZM523.982 116.204L523.831 117.192L525.262 117.411L524.96 115.995L523.982 116.204ZM560.016 116.204L559.038 115.996L558.737 117.411L560.168 117.192L560.016 116.204ZM569.407 143.663L568.921 142.789L568.306 143.131L568.42 143.826L569.407 143.663ZM516.69 143.551C511.599 141.539 508 136.574 508 130.771H506C506 137.422 510.126 143.107 515.955 145.411L516.69 143.551ZM508 130.771C508 123.184 514.15 117.034 521.737 117.034V115.034C513.046 115.034 506 122.079 506 130.771H508ZM521.737 117.034C522.45 117.034 523.149 117.088 523.831 117.192L524.133 115.215C523.351 115.096 522.551 115.034 521.737 115.034V117.034ZM524.96 115.995C524.71 114.82 524.578 113.601 524.578 112.349H522.578C522.578 113.741 522.725 115.101 523.004 116.412L524.96 115.995ZM524.578 112.349C524.578 102.727 532.378 94.9277 541.999 94.9277V92.9277C531.273 92.9277 522.578 101.623 522.578 112.349H524.578ZM541.999 94.9277C551.621 94.9277 559.42 102.727 559.42 112.349H561.42C561.42 101.623 552.725 92.9277 541.999 92.9277V94.9277ZM559.42 112.349C559.42 113.601 559.289 114.82 559.038 115.996L560.995 116.412C561.274 115.101 561.42 113.741 561.42 112.349H559.42ZM560.168 117.192C560.85 117.088 561.55 117.034 562.263 117.034V115.034C561.449 115.034 560.648 115.096 559.865 115.215L560.168 117.192ZM562.263 117.034C569.85 117.034 576 123.184 576 130.771H578C578 122.079 570.955 115.034 562.263 115.034V117.034ZM576 130.771C576 135.94 573.145 140.444 568.921 142.789L569.892 144.538C574.725 141.854 578 136.695 578 130.771H576ZM568.42 143.826C568.56 144.677 568.632 145.546 568.632 146.428H570.632C570.632 145.436 570.551 144.459 570.393 143.501L568.42 143.826ZM568.632 146.428C568.632 157.371 557.35 166.612 542.921 166.612V168.612C557.997 168.612 570.632 158.883 570.632 146.428H568.632ZM542.921 166.612C528.493 166.612 517.211 157.371 517.211 146.428H515.211C515.211 158.883 527.846 168.612 542.921 168.612V166.612ZM517.211 146.428C517.211 145.81 517.246 145.198 517.316 144.595L515.329 144.367C515.251 145.046 515.211 145.733 515.211 146.428H517.211Z" fill="#006DAE" mask="url(#path-108-inside-2)"/>
<line x1="541.156" y1="129.928" x2="541.156" y2="203.454" stroke="#006DAE" stroke-width="2" stroke-linecap="round"/>
<line x1="527.972" y1="136.296" x2="540.159" y2="148.484" stroke="#006DAE" stroke-linecap="round"/>
<line x1="552.915" y1="149.885" x2="542.694" y2="156.699" stroke="#006DAE" stroke-linecap="round"/>
</g>
</svg>
